<?xml version="1.0" encoding="UTF-8"?>
<svg id="Layer_2" data-name="Layer 2" xmlns="http://www.w3.org/2000/svg" xmlns:xlink="http://www.w3.org/1999/xlink" viewBox="0 0 1025 1025">
  <defs>
    <style>
      .cls-1 {
        fill: none;
      }

      .cls-1, .cls-2 {
        stroke-width: 0px;
      }

      .cls-2 {
        fill: #bc852f;
      }

      .cls-3 {
        clip-path: url(#clippath);
      }
    </style>
    <clipPath id="clippath">
      <rect class="cls-1" width="1025" height="1025"/>
    </clipPath>
  </defs>
  <g id="Layer_1-2" data-name="Layer 1">
    <g class="cls-3">
      <path class="cls-2" d="m64.83,557.12c-12.81-129.88,31.7-258.93,122.13-354.09,80.49-84.69,189.66-134.41,304.57-139.89l-19.54-11.28c-7.91-4.56-10.61-14.67-6.05-22.58,4.56-7.91,14.67-10.61,22.58-6.05l75.84,43.79c5.11,2.95,8.27,8.41,8.27,14.31s-3.15,11.36-8.27,14.32l-75.84,43.79c-7.91,4.57-18.02,1.85-22.58-6.05-4.57-7.91-1.86-18.02,6.05-22.58l25.7-14.84c-108.14,3.95-211.1,50.21-286.78,129.83-83.81,88.19-125.06,207.76-113.19,328.06.9,9.09-5.74,17.18-14.83,18.07-.55.06-1.1.08-1.65.08-8.39,0-15.58-6.37-16.43-14.9Zm877.04-104.82c-9.08.91-15.71,9.01-14.8,18.09,12.09,120.81-29.33,240.73-113.67,329.05-75.68,79.24-178.06,125.26-285.47,129.41l25.54-14.75c7.91-4.56,10.62-14.67,6.05-22.58-4.56-7.91-14.67-10.62-22.58-6.05l-75.84,43.79c-5.11,2.95-8.26,8.41-8.26,14.32s3.15,11.36,8.26,14.31l75.84,43.79c2.6,1.5,5.45,2.21,8.25,2.21,5.71,0,11.27-2.96,14.33-8.27,4.57-7.91,1.85-18.02-6.05-22.58l-19.68-11.36c114.29-5.59,222.95-55.05,303.52-139.42,91.01-95.3,135.71-224.76,122.66-355.17-.91-9.08-9.02-15.72-18.09-14.8Zm-503.24,343.26c.15,3.27.23,6.56.23,9.88,0,120.99-98.44,219.43-219.43,219.43S0,926.42,0,805.43s95.03-215.97,213.11-219.33v-49.33c-18.34-17.21-27.67-37.22-27.67-59.61v-110.78c0-21.95,17.86-39.81,39.81-39.81h149.44v-32.1c0-35.93,29.23-65.16,65.16-65.16h145.18c.69,0,1.36.04,2.05.06-.16-3.43-.26-6.88-.26-10.34C586.81,98.26,685.07,0,805.84,0s219.02,98.26,219.02,219.02c0,109.35-80.55,200.24-185.43,216.45v41.69c0,22.39-9.32,42.4-27.68,59.61v196.81c0,34.17-27.8,61.97-61.97,61.97h-311.15Zm340.06-61.97v-173.86c-39.29,19.75-107.9,33.56-192.84,38.74-3.53,37.41-35.1,66.79-73.41,66.79s-69.88-29.35-73.42-66.75c-84.87-5.14-153.48-18.97-192.84-38.78v27.91c94.2,11.5,170.15,82.91,188.46,174.86h315.14c15.94,0,28.91-12.97,28.91-28.91Zm-266.26-182.77c-22.44,0-40.7,18.26-40.7,40.69s18.26,40.69,40.7,40.69,40.69-18.26,40.69-40.69-18.25-40.69-40.69-40.69Zm107.44-331.79c0,102.54,83.42,185.96,185.96,185.96s185.96-83.42,185.96-185.96-83.42-185.96-185.96-185.96-185.96,83.43-185.96,185.96Zm-253.04,199.79c0,6.98,5.68,12.66,12.66,12.66h265.86c6.98,0,12.66-5.68,12.66-12.66v-38.31c-7.1-6.51-13.78-13.48-19.97-20.87h-271.21v59.18Zm40.91-92.24h207.35c-11.06-19.53-19.21-40.91-23.84-63.56-2.04-.4-4.11-.64-6.23-.64h-145.18c-17.7,0-32.1,14.4-32.1,32.1v32.1Zm-189.24,150.59c0,14.76,6.87,27.28,21.63,39.39,3.65,2.99,7.85,6,12.5,8.94,31.91,20.19,102.64,35,190.73,40.15,10.5-27.95,37.49-47.9,69.07-47.9s58.54,19.93,69.05,47.86c88.21-5.19,158.95-19.99,190.76-40.11,4.64-2.94,8.84-5.95,12.5-8.94,14.76-12.11,21.63-24.63,21.63-39.39v-39.12c-.18,0-.35,0-.53,0-42.05,0-81.36-11.92-114.76-32.54v13.31c0,25.21-20.51,45.72-45.72,45.72h-265.86c-25.21,0-45.72-20.51-45.72-45.72v-59.19h-108.53c-3.72,0-6.75,3.03-6.75,6.76v110.78Zm187.3,328.27c0-102.76-83.6-186.37-186.37-186.37s-186.37,83.61-186.37,186.37,83.6,186.37,186.37,186.37,186.37-83.6,186.37-186.37Zm348.68-513.52c3.22,3.22,7.45,4.84,11.69,4.84,3.97,0,7.95-1.42,11.1-4.29l134.86-122.4c6.76-6.14,7.27-16.59,1.14-23.35-6.14-6.76-16.59-7.27-23.35-1.13l-123.21,111.81-44.39-44.4c-6.46-6.45-16.92-6.45-23.38,0s-6.46,16.92,0,23.38l55.53,55.53Zm-417.39,448.45c20.59,0,37.34,16.75,37.34,37.34,0,5.14-1.04,10.04-2.93,14.51,7.2,6.81,11.7,16.45,11.7,27.13,0,12.75-6.43,24.04-16.21,30.78,1.04,3.43,1.6,7.07,1.6,10.85,0,11.97-5.66,22.64-14.44,29.48,1.31,3.81,2.03,7.9,2.03,12.15,0,20.59-16.75,37.34-37.34,37.34h-33.6c-2.34,0-4.63-.24-6.85-.66l-3.48.6c-21.83,3.79-41.13,7.14-58.91,7.14-22.73,0-42.97-5.49-62.88-22.5h-49.11c-9.13,0-16.53-7.4-16.53-16.53v-143.86c0-9.13,7.4-16.53,16.53-16.53h50.05c2.66-1.92,5.32-3.82,7.93-5.66,24.32-17.15,39.09-29.05,39.09-49.74v-43.67c0-9.13,7.4-16.53,16.53-16.53,37.99,0,68.91,30.91,68.91,68.91v33.88c0,.76-.05,1.51-.16,2.26-.15,1.1-.35,2.22-.59,3.34h51.32Zm-216.56,151.08h22.45c.02-16.89.01-49.77-.04-110.8h-22.41v110.8Zm128.29,19.31c-.59-2.63-.93-5.36-.93-8.17,0-7.7,2.34-14.86,6.35-20.81-4.01-5.95-6.35-13.11-6.35-20.81,0-5.14,1.05-10.04,2.93-14.51-1.65-1.56-3.15-3.29-4.49-5.13-2.99,2.05-5.81,3.8-8.29,5.21-2.59,1.49-5.42,2.2-8.21,2.2-5.73,0-11.3-2.98-14.35-8.3-4.54-7.92-1.81-18.02,6.1-22.57,13.93-7.99,23.48-18.19,25.55-27.25,1.39-6.09-.35-12.59-5.32-19.84-4.49-6.56-3.67-15.4,1.95-21.03,6.26-6.27,8.96-13.01,9.69-16.38v-32.48c0-13.81-7.85-25.82-19.32-31.81v23.1c0,39.32-29.44,60.08-53.1,76.76-1.72,1.21-3.39,2.4-5.04,3.57.03,43.77.05,76.93.05,99.48,0,12.01,0,21.01-.02,27.01v1.59c19.54,15.89,39.08,15.54,72.8,10.17Zm74.3-8.17c0-2.32-1.96-4.29-4.29-4.29h-.02l-26.68-.02-6.85.02h-.05c-2.32,0-4.28,1.96-4.28,4.29s1.96,4.28,4.28,4.28h33.6c2.32,0,4.28-1.96,4.28-4.28Zm12.41-41.63c0-2.32-1.96-4.28-4.28-4.28h-46.01c-2.32,0-4.29,1.96-4.29,4.28s1.96,4.29,4.28,4.29l6.86-.03,26.75.03h12.4c2.32,0,4.29-1.96,4.29-4.29Zm14.6-41.63c0-2.32-1.96-4.28-4.28-4.28h-69.39c-2.32,0-4.28,1.96-4.28,4.28s1.96,4.29,4.28,4.29h69.39c2.32,0,4.28-1.96,4.28-4.29Zm-13.05-45.91h-51.85c-1.51,0-2.54.8-3.01,1.27s-1.27,1.5-1.27,3.01c0,2.32,1.96,4.28,4.29,4.28h51.84c2.32,0,4.29-1.96,4.29-4.28s-1.96-4.28-4.29-4.28Z"/>
    </g>
  </g>
</svg>