<?xml version="1.0" encoding="UTF-8"?>
<svg id="Layer_2" data-name="Layer 2" xmlns="http://www.w3.org/2000/svg" viewBox="0 0 931.29 901.16">
  <defs>
    <style>
      .cls-1 {
        fill: #bc852f;
        stroke-width: 0px;
      }
    </style>
  </defs>
  <g id="Layer_1-2" data-name="Layer 1">
    <path class="cls-1" d="m120.77,142.54c93.8-2.44,93.91-140.12,0-142.54-2.32.02-4.64.15-6.94.4-2.31.24-4.6.6-6.88,1.07-2.28.47-4.52,1.05-6.74,1.74s-4.4,1.48-6.54,2.39-4.23,1.91-6.28,3.01-4.02,2.31-5.95,3.61c-1.92,1.3-3.78,2.69-5.57,4.17s-3.5,3.05-5.14,4.7c-1.64,1.65-3.19,3.37-4.66,5.17-1.46,1.8-2.84,3.67-4.13,5.6-1.29,1.93-2.47,3.93-3.56,5.97-1.09,2.05-2.07,4.15-2.96,6.3-.89,2.15-1.66,4.33-2.33,6.56s-1.23,4.47-1.68,6.76c-.45,2.28-.79,4.57-1.02,6.88-.22,2.31-.34,4.63-.34,6.95s.11,4.64.34,6.95c.23,2.31.57,4.61,1.02,6.89.45,2.28,1.01,4.53,1.68,6.75s1.45,4.41,2.33,6.56,1.87,4.24,2.96,6.3c1.09,2.05,2.28,4.04,3.56,5.98,1.29,1.93,2.66,3.8,4.13,5.6,1.46,1.8,3.02,3.52,4.65,5.17s3.35,3.21,5.14,4.69c1.79,1.48,3.65,2.88,5.57,4.18,1.93,1.3,3.91,2.5,5.95,3.6,2.04,1.11,4.13,2.11,6.27,3.02s4.32,1.69,6.54,2.39c2.22.69,4.46,1.27,6.74,1.73s4.57.83,6.88,1.07,4.63.38,6.95.4Z"/>
    <path class="cls-1" d="m760.63,789.22c1.03,1.03,2.09,2.03,3.18,2.99,1.09.96,2.21,1.9,3.36,2.79,1.15.9,2.32,1.76,3.53,2.58,1.2.83,2.43,1.61,3.68,2.36,1.24.75,2.52,1.46,3.81,2.13,1.29.67,2.6,1.3,3.94,1.9,1.33.59,2.68,1.14,4.05,1.65s2.74.97,4.14,1.4c1.39.42,2.8.8,4.22,1.14,1.42.34,2.84.63,4.28.88,1.44.24,2.88.45,4.33.61,1.45.16,2.9.28,4.35.35,1.45.07,2.91.09,4.37.08,1.45-.02,2.91-.08,4.36-.19,1.45-.1,2.9-.26,4.34-.45,1.44-.2,2.88-.44,4.31-.72,1.43-.29,2.85-.61,4.26-.98,1.41-.37,2.8-.79,4.19-1.24,1.38-.45,2.75-.95,4.1-1.49s2.69-1.12,4.01-1.74,2.61-1.29,3.89-1.99c1.28-.7,2.53-1.44,3.76-2.22,1.23-.78,2.44-1.6,3.62-2.45,1.18-.85,2.33-1.74,3.46-2.67,1.13-.93,2.22-1.89,3.29-2.88s2.1-2.02,3.11-3.07c1.01-1.06,1.98-2.14,2.92-3.26s1.84-2.26,2.71-3.43c.87-1.17,1.7-2.37,2.49-3.59s1.55-2.46,2.27-3.73c.72-1.27,1.4-2.55,2.04-3.86.64-1.31,1.23-2.64,1.8-3.98.56-1.35,1.07-2.71,1.55-4.09.47-1.38.91-2.77,1.3-4.17.39-1.41.73-2.82,1.04-4.24s.56-2.86.77-4.3c.21-1.44.39-2.89.51-4.34.13-1.45.21-2.9.24-4.36s.03-2.91-.03-4.37c-.06-1.45-.15-2.91-.3-4.36-.14-1.45-.33-2.9-.56-4.33-.23-1.44-.51-2.87-.82-4.29-.32-1.42-.68-2.83-1.09-4.23s-.85-2.79-1.34-4.16c-.49-1.38-1.02-2.73-1.59-4.07-.58-1.34-1.19-2.66-1.84-3.96s-1.35-2.58-2.08-3.84-1.51-2.49-2.31-3.71c-.81-1.21-1.66-2.4-2.54-3.56-.88-1.16-1.8-2.29-2.75-3.4-.95-1.1-1.93-2.18-2.95-3.22-1.02-1.04-2.06-2.05-3.14-3.03-1.08-.98-2.19-1.93-3.33-2.84-1.14-.91-2.3-1.79-3.49-2.63-1.19-.84-2.41-1.64-3.65-2.41s-2.51-1.49-3.79-2.18c-1.29-.69-2.59-1.33-3.92-1.94-1.32-.6-2.67-1.17-4.03-1.7s-2.73-1.01-4.12-1.45-2.79-.84-4.2-1.19-2.84-.67-4.27-.93c-1.43-.27-2.87-.49-4.31-.67-1.45-.18-2.9-.31-4.35-.4-1.45-.09-2.91-.14-4.36-.14-3.49.04-6.95.33-10.4.87-3.45.54-6.83,1.33-10.16,2.37s-6.57,2.31-9.71,3.82-6.16,3.24-9.05,5.19c-2.89,1.95-5.63,4.1-8.2,6.45-2.58,2.35-4.97,4.88-7.17,7.58-2.2,2.7-4.2,5.55-5.99,8.54-1.79,2.99-3.35,6.1-4.69,9.32-1.33,3.22-2.43,6.53-3.28,9.91-.85,3.38-1.45,6.81-1.8,10.28-.35,3.47-.45,6.94-.3,10.43.16,3.48.57,6.94,1.23,10.36.66,3.43,1.57,6.78,2.72,10.07,1.15,3.29,2.54,6.48,4.16,9.57,1.61,3.09,3.45,6.05,5.5,8.86,2.05,2.82,4.3,5.47,6.74,7.97Z"/>
    <path class="cls-1" d="m888.04,809.35c-1.22,1.34-2.47,2.65-3.75,3.92-1.29,1.27-2.6,2.52-3.95,3.72s-2.73,2.38-4.14,3.51c-1.41,1.13-2.85,2.23-4.31,3.29-1.47,1.06-2.96,2.08-4.48,3.06-1.52.98-3.07,1.92-4.64,2.82s-3.16,1.76-4.78,2.57-3.25,1.59-4.91,2.32c-1.65.73-3.33,1.42-5.02,2.06-1.69.65-3.4,1.24-5.12,1.8s-3.46,1.06-5.21,1.53c-1.74.46-3.51.88-5.28,1.26-1.77.37-3.55.7-5.34.98s-3.58.51-5.38.7-3.6.33-5.41.42c-1.81.09-3.61.14-5.42.14-1.81,0-3.62-.05-5.43-.15-1.81-.09-3.61-.24-5.41-.43-1.8-.19-3.59-.43-5.38-.71-1.79-.28-3.57-.61-5.33-.99-1.77-.38-3.53-.8-5.28-1.27-1.75-.47-3.48-.98-5.2-1.54-1.72-.56-3.43-1.17-5.11-1.81-1.69-.65-3.36-1.34-5.02-2.07s-3.29-1.52-4.9-2.33c-1.61-.82-3.2-1.68-4.77-2.59-1.57-.9-3.11-1.84-4.63-2.83-1.52-.98-3.01-2.01-4.48-3.07-1.46-1.06-2.9-2.16-4.31-3.3-1.41-1.14-2.79-2.31-4.13-3.52-1.35-1.21-2.66-2.45-3.94-3.73-1.28-1.28-2.53-2.58-3.74-3.93-26.85,25.1-48.24,87.12,6.49,91.98h141.21c54.69-4.83,33.46-66.85,6.49-91.81Z"/>
    <path class="cls-1" d="m50.24,233.52h141.05c2.68,0,5.32-.3,7.92-.89,2.6-.6,5.11-1.48,7.52-2.65s4.65-2.59,6.73-4.27c2.08-1.67,3.95-3.56,5.6-5.66,18.67-25.32-4.06-59.36-21.12-78.51-1,1.17-2.16,2.33-3.16,3.33-1.24,1.24-2.52,2.46-3.83,3.64-1.3,1.18-2.64,2.33-4,3.45s-2.76,2.19-4.17,3.24c-1.42,1.04-2.86,2.05-4.33,3.02-1.47.97-2.96,1.91-4.48,2.8s-3.05,1.76-4.61,2.57c-1.56.82-3.14,1.59-4.73,2.33s-3.22,1.44-4.85,2.09c-1.64.66-3.29,1.27-4.95,1.84-1.66.58-3.34,1.1-5.04,1.59s-3.4.94-5.11,1.34-3.44.76-5.17,1.08c-1.73.31-3.47.58-5.22.81-1.74.23-3.49.41-5.25.55-1.76.14-3.52.23-5.28.28-1.76.05-3.52.06-5.28.02-1.76-.04-3.52-.12-5.28-.24-1.76-.13-3.51-.3-5.26-.52-1.74-.22-3.49-.48-5.22-.78-1.73-.31-3.46-.65-5.18-1.05-1.72-.39-3.42-.82-5.12-1.3-1.69-.48-3.38-.99-5.05-1.56-1.67-.56-3.32-1.17-4.96-1.81s-3.26-1.33-4.86-2.06c-1.6-.73-3.19-1.5-4.75-2.31-1.57-.81-3.11-1.66-4.63-2.54-1.53-.89-3.02-1.81-4.5-2.77-1.47-.96-2.92-1.96-4.35-2.99s-2.82-2.1-4.19-3.21c-1.37-1.1-2.71-2.24-4.03-3.42-1.31-1.18-2.6-2.38-3.85-3.62-1.26-1.24-2.47-2.51-3.66-3.81-26.63,25.33-48.44,86.93,6.65,91.98Z"/>
    <path class="cls-1" d="m608.27,619.24c-1.16-.67-2.49-1.33-3.82-2-6.56,26.59-16.05,52.09-28.44,76.51-8.43,16.65-18.57,32.17-30.44,46.57,12.24-3.46,24.21-7.68,35.92-12.65,11.71-4.97,23.06-10.66,34.06-17.05,11-6.4,21.55-13.45,31.66-21.17,10.11-7.72,19.69-16.05,28.76-24.97-20.65-17.96-43.21-33.04-67.7-45.24Z"/>
    <path class="cls-1" d="m327.35,616.74c-26.63,12.12-50.86,27.92-72.69,47.41,8.96,8.99,18.46,17.36,28.5,25.11,10.04,7.75,20.55,14.82,31.51,21.21,10.96,6.39,22.29,12.04,33.99,16.95,11.7,4.91,23.66,9.05,35.9,12.41-13.36-18.51-24.85-38.12-34.47-58.82-9.63-20.7-17.2-42.13-22.74-64.27Z"/>
    <path class="cls-1" d="m281.11,257.97c14.71,10.35,30.23,19.27,46.57,26.78,7.06-26.89,16.54-52.89,28.44-78.01,7.82-16.29,17.24-31.59,28.28-45.91-12.22,3.45-24.17,7.67-35.85,12.66-11.68,4.99-22.99,10.7-33.94,17.15-10.94,6.44-21.43,13.56-31.47,21.34-10.03,7.79-19.52,16.19-28.48,25.19,8.45,7.4,17.27,14.33,26.45,20.79Z"/>
    <path class="cls-1" d="m603.62,284.25c26.54-12.67,50.88-28.7,73.02-48.07-14.6-14.1-30.48-26.61-47.62-37.5-17.14-10.9-35.2-19.96-54.17-27.2-49.89-22.18-7.53,8.09,1.49,36.76,11.43,24.5,20.52,49.83,27.28,76.01Z"/>
    <path class="cls-1" d="m699.09,260.8c-13.08,11.56-26.97,22.05-41.67,31.48s-30.03,17.67-45.99,24.74c4.3,21.99,7.53,44.15,9.7,66.46,2.17,22.31,3.26,44.67,3.27,67.09.01,22.42-1.05,44.78-3.19,67.09-2.14,22.31-5.34,44.47-9.61,66.47,15.8,7.02,30.98,15.2,45.54,24.55,14.56,9.34,28.32,19.73,41.29,31.17,2.69-3.31,5.32-6.68,7.87-10.11s5.03-6.91,7.43-10.44c2.4-3.53,4.73-7.11,6.98-10.74,2.26-3.63,4.43-7.31,6.52-11.03s4.11-7.49,6.04-11.3c1.94-3.81,3.79-7.66,5.56-11.55,1.77-3.89,3.46-7.81,5.06-11.77,1.6-3.96,3.12-7.95,4.56-11.97,1.43-4.02,2.78-8.07,4.04-12.16,1.26-4.08,2.43-8.19,3.52-12.32,1.08-4.13,2.08-8.29,2.99-12.46.91-4.18,1.73-8.36,2.46-12.57.73-4.21,1.37-8.43,1.92-12.67.55-4.24,1.02-8.48,1.39-12.74s.65-8.52.84-12.79c.19-4.27.29-8.54.3-12.81,0-4.27-.08-8.54-.25-12.81-.18-4.27-.44-8.53-.8-12.79-.35-4.26-.8-8.5-1.34-12.74s-1.16-8.46-1.88-12.67c-.71-4.21-1.52-8.41-2.42-12.58s-1.88-8.33-2.95-12.47-2.23-8.24-3.48-12.33c-1.24-4.08-2.58-8.14-4-12.17-1.42-4.03-2.92-8.03-4.51-11.99s-3.27-7.9-5.02-11.79c-1.76-3.9-3.59-7.75-5.52-11.57-1.92-3.81-3.92-7.58-6.01-11.32-2.08-3.73-4.24-7.41-6.48-11.05-2.24-3.64-4.55-7.23-6.94-10.77-2.39-3.54-4.86-7.03-7.4-10.46-2.54-3.43-5.15-6.81-7.83-10.14Z"/>
    <path class="cls-1" d="m189.46,566.34c10.87,26.35,25.23,50.63,43.08,72.85,12.98-11.48,26.78-21.88,41.4-31.2,14.61-9.32,29.86-17.44,45.76-24.36-10.58-57.61-14.3-115.66-11.15-174.15,1.16-30.99,4.98-61.65,11.48-91.98-2.46-.88-4.84-1.93-7.15-3.16-14.65-6.71-28.72-14.46-42.22-23.28-13.49-8.81-26.25-18.57-38.29-29.29-4.28,5.21-8.38,10.56-12.3,16.05s-7.64,11.1-11.17,16.85-6.86,11.6-9.99,17.57c-3.13,5.97-6.05,12.05-8.76,18.22s-5.21,12.43-7.49,18.78c-2.29,6.34-4.35,12.76-6.19,19.24s-3.46,13.03-4.86,19.63c-1.4,6.59-2.57,13.23-3.51,19.91-.94,6.68-1.65,13.38-2.14,20.1-.48,6.72-.73,13.46-.75,20.2-.02,6.74.19,13.48.63,20.2.44,6.73,1.11,13.44,2.02,20.12.9,6.68,2.03,13.32,3.39,19.93,1.35,6.6,2.94,13.16,4.74,19.65s3.83,12.92,6.08,19.28,4.71,12.63,7.39,18.82Z"/>
    <path class="cls-1" d="m510.64,170.15c-3.96-4.02-8.32-7.55-13.06-10.61-4.74-3.06-9.76-5.56-15.05-7.52v163.17c30.83-1.53,60.77-7.52,89.82-17.96-13.94-50.76-29.26-93.54-61.71-127.08Z"/>
    <path class="cls-1" d="m449.26,151.85c-52.37,22.93-72.44,87.61-90.15,145.7,29.21,10.1,59.27,15.82,90.15,17.14v-162.84Z"/>
    <path class="cls-1" d="m404.19,710.55c2.6,4.28,5.54,8.31,8.8,12.11,3.26,3.8,6.81,7.31,10.64,10.54,3.83,3.22,7.9,6.11,12.2,8.68s8.78,4.76,13.44,6.6v-162.01c-31.08,1.24-61.29,7.01-90.65,17.3,4.55,18.95,10.66,37.39,18.3,55.31,7.65,17.92,16.74,35.08,27.27,51.48Z"/>
    <path class="cls-1" d="m482.53,749.14c4.52-1.99,8.86-4.31,13.03-6.95,4.17-2.65,8.11-5.59,11.84-8.83s7.18-6.75,10.37-10.52,6.08-7.75,8.67-11.95c11.2-16.05,20.72-33.02,28.59-50.94,7.86-17.91,13.92-36.42,18.15-55.52-29.31-10.58-59.53-16.68-90.65-18.3v163.01Z"/>
    <path class="cls-1" d="m482.53,553.04c33.43,1.56,65.98,7.77,97.64,18.63,3.67-19.96,6.41-40.05,8.22-60.26,1.82-20.22,2.71-40.47,2.67-60.77s-1.02-40.55-2.92-60.75c-1.9-20.21-4.72-40.29-8.47-60.23-31.47,10.93-63.85,17.14-97.14,18.63v204.75Z"/>
    <path class="cls-1" d="m449.26,347.96c-33.48-1.19-66.08-7.18-97.8-17.96-5.48,26.61-8.69,53.51-9.65,80.67-2.9,53.86.27,107.36,9.48,160.51,31.78-10.75,64.44-16.73,97.96-17.96v-205.24Z"/>
    <path class="cls-1" d="m76.87,302.9c.91-1.02,1.93-1.92,3.05-2.68-1.13.76-2.15,1.66-3.05,2.68Z"/>
    <path class="cls-1" d="m628.07,798.7C347.8,932.05,30.72,683.16,87.68,382.55l9.81,44.08c.25,1.05.59,2.07,1.04,3.05.45.98.98,1.91,1.61,2.79.63.88,1.33,1.68,2.12,2.43.79.74,1.64,1.4,2.55,1.97.92.57,1.88,1.06,2.89,1.44s2.05.67,3.11.85c1.06.19,2.14.27,3.21.24,1.08-.03,2.15-.16,3.2-.39,1.05-.23,2.08-.57,3.07-1s1.93-.95,2.81-1.57c.89-.61,1.71-1.31,2.46-2.09.76-.77,1.43-1.61,2.01-2.52.59-.9,1.08-1.86,1.49-2.86.4-1,.7-2.03.9-3.09.2-1.06.3-2.13.29-3.21-.01-1.08-.12-2.15-.34-3.2l-24.45-109.28c-.14-.58-.3-1.15-.49-1.71-.19-.56-.42-1.11-.67-1.66-.26-.54-.54-1.06-.84-1.57-.31-.51-.65-.99-1.01-1.47-.36-.47-.75-.93-1.16-1.36-.41-.43-.85-.84-1.3-1.22-.45-.39-.93-.74-1.42-1.08-.49-.33-1.01-.64-1.53-.92-.53-.28-1.07-.53-1.63-.75-.55-.22-1.11-.41-1.69-.57-.57-.16-1.15-.29-1.74-.39-.59-.09-1.18-.16-1.78-.19-.59-.04-1.19-.04-1.79,0-.59.03-1.19.09-1.78.18s-1.17.22-1.74.38c-.57.16-1.14.34-1.69.56-3.44.71-7.99,6.35-8.69,7.15-2.17,2.69-70.79,82.43-71.35,83.32-.62.86-1.16,1.77-1.6,2.73-.44.96-.8,1.95-1.05,2.98-.26,1.03-.42,2.07-.47,3.13s-.02,2.11.13,3.16c.14,1.05.39,2.08.72,3.08s.77,1.96,1.29,2.89c.53.92,1.13,1.79,1.82,2.59.69.8,1.45,1.54,2.28,2.2s1.71,1.24,2.65,1.73c.94.49,1.92.89,2.93,1.2,1.02.31,2.05.51,3.1.62,1.06.11,2.11.11,3.17.02,1.05-.09,2.09-.29,3.11-.58,1.02-.29,2-.67,2.95-1.15.94-.48,1.83-1.05,2.67-1.69.84-.65,1.61-1.38,2.31-2.17.61-.71,11.77-13.71,18.99-22.14l5.99-6.98c.3-.66-.62,3.85-.86,5.73-44.25,243.86,163.02,488.81,415.87,481.97,14.99-.13,29.93-1.06,44.82-2.81,14.89-1.74,29.64-4.3,44.25-7.65,14.61-3.35,29-7.48,43.16-12.4,14.16-4.92,28.02-10.58,41.57-17,.94-.51,1.83-1.09,2.67-1.77s1.59-1.43,2.28-2.25c.69-.82,1.29-1.71,1.81-2.65.52-.94.94-1.92,1.26-2.94.33-1.03.55-2.07.67-3.14.13-1.06.15-2.13.06-3.2-.08-1.07-.27-2.13-.56-3.16-.29-1.03-.67-2.03-1.15-2.99s-1.05-1.86-1.7-2.71-1.39-1.63-2.2-2.33-1.67-1.33-2.6-1.87c-.93-.54-1.9-.98-2.91-1.33-1.02-.35-2.05-.6-3.11-.75-1.06-.15-2.13-.2-3.2-.14-1.07.06-2.13.21-3.17.48-1.04.26-2.04.62-3.02,1.08Z"/>
    <path class="cls-1" d="m925.46,490.5c-.83-.7-1.73-1.32-2.68-1.84s-1.95-.96-2.98-1.29-2.1-.56-3.18-.69c-1.08-.13-2.17-.15-3.25-.06-1.09.09-2.16.28-3.2.57-1.05.29-2.06.69-3.04,1.18s-1.89,1.07-2.75,1.74c-.86.67-1.65,1.41-2.36,2.23l-25.11,29.44c1.81-10.41,3.21-20.88,4.22-31.39,1.01-10.52,1.61-21.06,1.82-31.62.21-10.57.01-21.12-.59-31.67-.6-10.55-1.6-21.06-3-31.53-1.4-10.47-3.2-20.88-5.4-31.21-2.19-10.34-4.78-20.57-7.76-30.71-2.97-10.14-6.33-20.15-10.07-30.03s-7.85-19.61-12.33-29.18C753.12,69.22,490.5-26.42,289.26,72.52c-.97.47-1.89,1.04-2.76,1.69-.86.65-1.65,1.38-2.38,2.18-.72.8-1.35,1.67-1.91,2.6-.55.93-1.01,1.9-1.37,2.92-.36,1.02-.63,2.06-.79,3.13-.16,1.07-.22,2.14-.17,3.22.05,1.08.2,2.15.45,3.2.26,1.05.61,2.06,1.06,3.05.45.98.99,1.91,1.63,2.78s1.34,1.68,2.14,2.42c.79.73,1.65,1.39,2.56,1.96.92.57,1.88,1.05,2.89,1.43,1.01.39,2.05.67,3.11.85,1.06.18,2.14.26,3.22.23,1.08-.03,2.15-.16,3.2-.39,1.05-.23,2.08-.57,3.07-1.01,280.94-132.14,596.29,112.18,540.23,416.49l-9.81-43.91c-.25-1.05-.6-2.06-1.05-3.04s-.99-1.91-1.62-2.78c-.63-.88-1.34-1.68-2.13-2.42s-1.64-1.39-2.55-1.96c-.91-.57-1.88-1.05-2.88-1.43-1.01-.39-2.04-.67-3.1-.85-1.06-.18-2.13-.26-3.21-.23s-2.14.15-3.19.39c-1.05.23-2.07.56-3.06.99-.99.43-1.93.95-2.81,1.57-.89.61-1.7,1.3-2.45,2.07-.76.78-1.42,1.61-2.01,2.51-.59.91-1.08,1.85-1.49,2.85-.4,1-.71,2.03-.91,3.08s-.3,2.13-.3,3.2c0,1.08.11,2.14.32,3.2l24.45,109.44c.36,1.49.91,2.9,1.66,4.23.74,1.33,1.66,2.54,2.73,3.63,1.07,1.08,2.28,2.01,3.61,2.76,1.33.76,2.73,1.32,4.22,1.69s2.99.53,4.52.48c1.53-.04,3.03-.29,4.48-.74,1.46-.46,2.83-1.1,4.11-1.93,1.28-.83,2.43-1.82,3.44-2.96l72.85-85.16c.71-.83,1.33-1.72,1.87-2.68s.97-1.95,1.31-2.98c.34-1.04.57-2.1.7-3.19.13-1.08.15-2.17.07-3.26-.09-1.09-.28-2.16-.57-3.21s-.69-2.06-1.19-3.04-1.08-1.89-1.76-2.75c-.68-.85-1.43-1.64-2.26-2.35Z"/>
  </g>
</svg>