<?xml version="1.0" encoding="UTF-8"?>
<svg id="Layer_2" data-name="Layer 2" xmlns="http://www.w3.org/2000/svg" xmlns:xlink="http://www.w3.org/1999/xlink" viewBox="0 0 1015 1015">
  <defs>
    <style>
      .cls-1 {
        fill: none;
      }

      .cls-1, .cls-2 {
        stroke-width: 0px;
      }

      .cls-3 {
        clip-path: url(#clippath);
      }

      .cls-2 {
        fill: #1e0d64;
      }
    </style>
    <clipPath id="clippath">
      <rect class="cls-1" width="1015" height="1015"/>
    </clipPath>
  </defs>
  <g id="Layer_1-2" data-name="Layer 1">
    <g class="cls-3">
      <path class="cls-2" d="m49.47,227.22v534.48c0,38.89,31.64,70.52,70.52,70.52h364.34v56.07c-24.71,9.48-42.31,33.45-42.31,61.46,0,36.3,29.52,65.82,65.81,65.82s65.82-29.52,65.82-65.82c0-28.01-17.59-51.97-42.31-61.46v-56.07h364.34c38.89,0,70.52-31.64,70.52-70.52V227.22c28.58-9.01,49.36-35.76,49.36-67.28v-89.32C1015.58,31.74,983.95.1,945.06.1H70.63C31.74.1.11,31.74.11,70.62v89.32c0,31.52,20.78,58.27,49.36,67.28Zm458.37,741.34c-10.36,0-18.8-8.44-18.8-18.81,0-5.91,2.74-11.18,7.02-14.63,3.47,2.02,7.48,3.19,11.78,3.19s8.32-1.17,11.79-3.19c4.28,3.45,7.02,8.72,7.02,14.63,0,10.37-8.44,18.81-18.81,18.81Zm411.36-206.85c0,12.96-10.54,23.51-23.51,23.51H119.99c-12.96,0-23.51-10.55-23.51-23.51V230.46h822.71v531.24ZM47.13,70.62c0-12.96,10.55-23.51,23.51-23.51h874.43c12.96,0,23.51,10.55,23.51,23.51v89.32c0,12.96-10.55,23.51-23.51,23.51H70.63c-12.96,0-23.51-10.55-23.51-23.51v-89.32Z"/>
    </g>
    <path class="cls-2" d="m531.35,491.05h277.37c12.03,0,21.93-9.04,23.32-20.69.8-2.36,1.25-4.89,1.25-7.52v-122.23c0-12.98-10.53-23.51-23.51-23.51s-23.51,10.53-23.51,23.51v103.43h-49.36v-65.81c0-12.98-10.53-23.51-23.51-23.51s-23.51,10.53-23.51,23.51v65.81h-51.71v-65.81c0-12.98-10.52-23.51-23.51-23.51s-23.51,10.53-23.51,23.51v65.81h-59.83c-12.98,0-23.51,10.53-23.51,23.51s10.53,23.51,23.51,23.51Z"/>
    <path class="cls-2" d="m808.72,630.31h-237.41c-12.98,0-23.51,10.53-23.51,23.51s10.53,23.51,23.51,23.51h237.41c12.98,0,23.51-10.53,23.51-23.51s-10.52-23.51-23.51-23.51Z"/>
    <path class="cls-2" d="m808.72,559.79h-72.87c-12.98,0-23.51,10.53-23.51,23.51s10.53,23.51,23.51,23.51h72.87c12.98,0,23.51-10.53,23.51-23.51s-10.52-23.51-23.51-23.51Z"/>
    <path class="cls-2" d="m158.67,728.46h305.58c12.98,0,23.51-10.53,23.51-23.51v-220.96c0-10.04-6.38-18.97-15.88-22.23-9.5-3.26-20.02-.13-26.18,7.8l-60.7,78.02-41.69-40.48c-4.98-4.84-11.84-7.22-18.75-6.53-6.91.7-13.15,4.42-17.06,10.16l-60.75,89.24-21.82-22.04c-5.45-5.51-13.27-7.96-20.9-6.59-7.63,1.39-14.08,6.44-17.26,13.51l-49.56,110.48c-3.26,7.27-2.61,15.7,1.72,22.4,4.33,6.69,11.76,10.73,19.73,10.73Zm56.98-93.08l17.78,17.95c4.94,4.99,11.85,7.52,18.85,6.87,6.99-.64,13.33-4.38,17.29-10.18l61.06-89.71,40.45,39.28c4.79,4.66,11.33,7.07,18.01,6.58,6.67-.46,12.82-3.74,16.92-9.01l34.75-44.67v128.96h-245.77l20.67-46.07Z"/>
    <path class="cls-2" d="m206.96,454.33h.16l82.27-.56c12.98-.09,23.44-10.68,23.35-23.66-.09-12.93-10.59-23.35-23.5-23.35h-.17l-82.27.55c-12.98.09-23.43,10.68-23.34,23.67.08,12.93,10.59,23.35,23.5,23.35Z"/>
    <path class="cls-2" d="m206.96,383.81h.08l176.3-.55c12.98-.04,23.47-10.6,23.43-23.58-.04-12.96-10.56-23.43-23.51-23.43h-.07l-176.3.56c-12.98.04-23.47,10.59-23.43,23.58.04,12.96,10.55,23.43,23.5,23.43Z"/>
    <path class="cls-2" d="m206.96,313.29h.08l176.3-.55c12.98-.04,23.47-10.6,23.43-23.58-.04-12.96-10.56-23.43-23.51-23.43h-.07l-176.3.55c-12.98.04-23.47,10.6-23.43,23.58.04,12.96,10.55,23.43,23.5,23.43Z"/>
  </g>
</svg>