<?xml version="1.0" encoding="UTF-8"?>
<svg id="Layer_2" data-name="Layer 2" xmlns="http://www.w3.org/2000/svg" xmlns:xlink="http://www.w3.org/1999/xlink" viewBox="0 0 767 967.33">
  <defs>
    <style>
      .cls-1 {
        clip-path: url(#clippath-2);
      }

      .cls-2 {
        fill: none;
      }

      .cls-2, .cls-3 {
        stroke-width: 0px;
      }

      .cls-3 {
        fill: #bc852f;
      }

      .cls-4 {
        clip-path: url(#clippath-1);
      }

      .cls-5 {
        clip-path: url(#clippath);
      }
    </style>
    <clipPath id="clippath">
      <rect class="cls-2" y="33.19" width="380.79" height="444"/>
    </clipPath>
    <clipPath id="clippath-1">
      <rect class="cls-2" x="332.79" width="434.21" height="593.19"/>
    </clipPath>
    <clipPath id="clippath-2">
      <rect class="cls-2" x="704.79" y="355.85" width="62.21" height="190.67"/>
    </clipPath>
  </defs>
  <g id="Layer_1-2" data-name="Layer 1">
    <g class="cls-5">
      <path class="cls-3" d="m33.34,460.98v-38.7c0-20.49,13.88-38.27,33.76-43.24l24.42-6.11c5.01-1.26,8.51-5.73,8.51-10.9,0-2.96-1.2-5.85-3.29-7.94l-10.15-10.15c-12.83-12.83-19.9-29.9-19.9-48.05,0-10.49,2.48-20.99,7.17-30.39l19-38.01c8.35-16.69,25.14-27.07,43.81-27.07,13.08,0,25.38,5.09,34.63,14.34l14.42,14.42c2.95,2.95,6.88,4.58,11.05,4.58,5.96,0,11.32-3.31,13.98-8.64l16.7-33.4c7.6-15.2,22.88-24.65,39.87-24.65h37.8c10.63-52.15,37.55-98.44,75.18-133.33C170.31,35.46,0,206.79,0,417.17c0,19.98,1.54,39.61,4.51,58.79l19.81-3.96c5.23-1.04,9.03-5.68,9.03-11.01Z"/>
    </g>
    <path class="cls-3" d="m523.86,915.56c-24.48-6.4-56.14-11.03-90.48-13.3-.85,17.63-15.43,31.72-33.27,31.72h-33.34c-17.84,0-32.41-14.09-33.27-31.72-34.34,2.27-65.99,6.9-90.48,13.3-29.86,7.81-39.5,15.53-42.22,18.42,3.04,3.23,14.65,12.46,52.99,21.03,35.53,7.94,81.58,12.31,129.65,12.31s94.11-4.38,129.65-12.31c38.34-8.57,49.95-17.81,52.99-21.03-2.72-2.9-12.36-10.61-42.22-18.43Z"/>
    <path class="cls-3" d="m66.69,564.56v-27.07c0-19.68,14.01-36.76,33.3-40.62l49.38-9.88c2.84-.57,5.17-2.62,6.08-5.36l6.48-19.47c5.65-16.94,21.44-28.32,39.3-28.32h24.09c22.84,0,41.42,18.58,41.42,41.42v12.89c0,12.97-6.19,25.36-16.57,33.14l-46.89,35.16c-2.03,1.52-3.23,3.93-3.23,6.46,0,3.96,2.84,7.32,6.76,7.97l57.26,9.54c20.87,3.48,36.02,21.36,36.02,42.52,0,11.52-4.48,22.34-12.63,30.48l-18.35,18.35c-1.53,1.53-2.36,3.55-2.36,5.71v15.01c0,4.45,3.62,8.08,8.08,8.08h48.35c11.06,0,21.46,4.31,29.29,12.13l18.84,18.84c1.53,1.53,3.55,2.37,5.71,2.37h36.71c.66,0,1.32-.08,1.96-.24l50.54-12.63c2.7-.68,4.83-2.65,5.7-5.29l8.46-25.39c4.1-12.3,13.9-22.09,26.2-26.19l21.35-7.12c3.31-1.1,5.53-4.18,5.53-7.67,0-7.38,1.66-14.39,4.6-20.67-12.73-12.78-238-241.2-238-411.63,0-5.6.2-11.16.57-16.67h-33.34c-4.28,0-8.13,2.38-10.05,6.21l-16.7,33.4c-8.35,16.7-25.14,27.08-43.8,27.08-13.08,0-25.38-5.09-34.63-14.34l-14.42-14.42c-2.95-2.95-6.88-4.58-11.05-4.58-5.96,0-11.32,3.31-13.98,8.64l-19,38c-2.39,4.78-3.65,10.14-3.65,15.48,0,9.24,3.6,17.93,10.14,24.46l10.15,10.15c8.42,8.42,13.05,19.61,13.05,31.52,0,20.49-13.88,38.27-33.76,43.24l-24.42,6.11c-5.01,1.26-8.51,5.73-8.51,10.9v38.7c0,21.17-15.07,39.56-35.83,43.71l-19.8,3.96c5.97,24.31,14.27,47.71,24.64,69.97l24.87-6.22c3.6-.9,6.12-4.13,6.12-7.84Z"/>
    <g class="cls-4">
      <path class="cls-3" d="m550.16,593.18c46.79-49.61,216.73-239.25,216.73-376.07C766.89,97.6,669.67.38,550.16.38s-216.73,97.22-216.73,216.73c0,136.82,169.94,326.45,216.73,376.07Zm-150.05-426.08v-23.13l35.66,11.89c-1.53-5.71-2.31-11.63-2.31-17.53,0-18.15,7.07-35.21,19.9-48.05l8.94-8.94,40.4,13.46c4.07-17.44,12.93-33.45,25.91-46.43l21.56-21.55,21.56,21.55c12.98,12.98,21.83,28.99,25.91,46.43l40.4-13.47,8.94,8.94c12.83,12.84,19.9,29.9,19.9,48.05,0,5.91-.79,11.82-2.31,17.53l35.65-11.89v23.13c0,14.21,7.9,26.99,20.61,33.34l16.45,8.22-4.57,13.72c-10.79,32.38-34.96,58.86-65.83,72.78v38.65h-16.67c-29.21,0-57.66-6.95-83.36-20.22v86.91h-33.34v-86.91c-25.7,13.28-54.15,20.22-83.35,20.22h-16.67v-38.65c-30.87-13.91-55.04-40.4-65.83-72.78l-4.57-13.72,16.45-8.22c12.71-6.35,20.6-19.13,20.6-33.34Z"/>
    </g>
    <path class="cls-3" d="m455.41,267.98l11.4,3.8v27.76c23.44-2.64,45.89-10.8,65.71-24.01l.98-.66v-107.78h33.34v107.78l.97.65c19.82,13.21,42.27,21.38,65.71,24.01v-27.76l11.4-3.8c22.1-7.36,40.43-23.31,50.95-43.8-12.12-8.79-20.99-21.07-25.55-35.1l-69.71,23.23,29.26-58.52c2.39-4.78,3.66-10.13,3.66-15.47,0-6.67-1.88-13.05-5.38-18.55l-61.31,20.44v-23.14c0-16.07-5.9-31.23-16.67-43.02-10.78,11.78-16.67,26.95-16.67,43.02v23.14l-61.31-20.44c-3.5,5.49-5.38,11.88-5.38,18.55,0,5.34,1.27,10.69,3.66,15.48l29.26,58.51-69.71-23.23c-4.56,14.04-13.43,26.32-25.55,35.1,10.53,20.49,28.85,36.43,50.95,43.8Z"/>
    <g class="cls-1">
      <path class="cls-3" d="m705.37,454.39l8.17,6.13c12.53,9.39,20.01,24.35,20.01,40.01v29.41c0,6.35,3.53,12.07,9.21,14.91l1.91.95c14.36-40.23,22.22-83.53,22.22-128.63,0-20.22-1.58-40.32-4.7-60.11-16.09,33.45-35.93,66.46-56.82,97.33Z"/>
    </g>
    <path class="cls-3" d="m400.11,833.59c-5.53.22-11.08.36-16.67.36s-11.14-.15-16.67-.36v67.05h33.34v-67.05Z"/>
    <path class="cls-3" d="m700.2,529.93v-29.41c0-5.22-2.49-10.2-6.67-13.34l-7.31-5.47c-36.37,50.29-73.38,92.81-97.51,119.11,25.14,2.61,44.8,23.92,44.8,49.74,0,9.19,7.48,16.67,16.67,16.67h23.7c23.39-27.13,43.04-57.55,58.17-90.47l-4.21-2.1c-17.05-8.53-27.65-25.67-27.65-44.73Z"/>
    <path class="cls-3" d="m600.18,650.57c0-9.19-7.48-16.67-16.67-16.67h-1.17c-8.55,0-15.5,6.95-15.5,15.51,0,17.85-11.39,33.65-28.33,39.3l-21.34,7.11c-2.4.8-4.31,2.71-5.11,5.11l-8.46,25.39c-4.51,13.51-15.44,23.64-29.26,27.09l-50.55,12.64c-3.29.82-6.66,1.23-10.05,1.23h-36.71c-11.06,0-21.46-4.31-29.29-12.13l-18.84-18.84c-1.53-1.53-3.55-2.37-5.71-2.37h-48.35c-22.84,0-41.42-18.58-41.42-41.42v-15.01c0-11.06,4.31-21.46,12.13-29.29l18.35-18.35c1.82-1.81,2.86-4.33,2.86-6.9,0-4.79-3.43-8.84-8.16-9.63l-57.26-9.54c-20.06-3.34-34.61-20.53-34.61-40.85,0-12.97,6.2-25.36,16.57-33.14l46.89-35.16c2.02-1.52,3.23-3.94,3.23-6.46v-12.89c0-4.46-3.63-8.08-8.08-8.08h-24.09c-3.48,0-6.56,2.22-7.67,5.52l-6.48,19.46c-4.69,14.07-16.64,24.61-31.18,27.52l-49.38,9.88c-3.77.75-6.49,4.08-6.49,7.92v27.07c0,19.05-12.9,35.57-31.38,40.19l-17.1,4.28c66.41,114.46,190.31,191.6,331.9,191.6,99.61,0,190.46-38.19,258.71-100.69-23.77-3.85-41.98-24.52-41.98-49.36Z"/>
  </g>
</svg>