<?xml version="1.0" encoding="UTF-8"?>
<svg id="Layer_2" data-name="Layer 2" xmlns="http://www.w3.org/2000/svg" xmlns:xlink="http://www.w3.org/1999/xlink" viewBox="0 0 820 820">
  <defs>
    <style>
      .cls-1 {
        fill: none;
      }

      .cls-1, .cls-2 {
        stroke-width: 0px;
      }

      .cls-3 {
        clip-path: url(#clippath-1);
      }

      .cls-4 {
        clip-path: url(#clippath);
      }

      .cls-2 {
        fill: #1e0d64;
      }
    </style>
    <clipPath id="clippath">
      <rect class="cls-1" x="140.61" y="241.95" width="679.39" height="578.05"/>
    </clipPath>
    <clipPath id="clippath-1">
      <rect class="cls-1" width="423.28" height="409.95"/>
    </clipPath>
  </defs>
  <g id="Layer_1-2" data-name="Layer 1">
    <g class="cls-4">
      <path class="cls-2" d="m819.89,731.5c-3.84,49.96-46.11,88.39-94.8,88.39H235.72c-49.96,0-92.23-38.43-94.8-88.39,0-3.84,1.28-7.69,3.84-10.25s6.41-3.84,8.97-3.84h19.21v-351.02c8.97,1.28,16.66,2.56,25.62,2.56v348.45h564.96v-439.41c0-5.13-3.84-10.24-10.25-10.24h-335.64c5.13-7.69,10.24-16.66,14.09-25.63h320.27c19.22,0,35.87,15.38,35.87,35.87v439.41h19.22c3.84,0,6.41,1.28,8.97,3.84,2.56,2.56,3.84,6.41,3.84,10.25Z"/>
    </g>
    <g class="cls-3">
      <path class="cls-2" d="m211.38,0C94.8,0,0,76.86,0,171.67c0,101.2,108.9,183.19,237,170.39l71.74,64.05c7.68,6.41,19.21,2.56,20.49-6.41l20.49-97.36c46.12-33.31,73.03-80.71,73.03-130.67C422.76,76.86,327.96,0,211.38,0Zm-58.93,101.21h116.58c6.4,0,12.81,6.41,12.81,12.81,0,7.68-6.41,12.81-12.81,12.81h-116.58c-7.69,0-12.81-5.13-12.81-12.81s6.41-12.81,12.81-12.81Zm117.86,140.92h-116.58c-7.69,0-12.81-6.41-12.81-12.81,0-7.69,5.13-12.81,12.81-12.81h116.58c6.4,0,12.81,5.13,12.81,12.81s-6.41,12.81-12.81,12.81Zm53.8-57.65H98.65c-7.69,0-12.81-6.41-12.81-12.81s5.13-12.81,12.81-12.81h225.47c6.41,0,12.81,6.41,12.81,12.81s-6.41,12.81-12.81,12.81Z"/>
    </g>
    <path class="cls-2" d="m632.85,639.26v52.53h-306.18v-52.53c0-35.87,29.46-65.33,64.05-65.33h32.03c10.24,7.69,21.78,14.09,34.59,16.65,3.84,11.53,15.37,15.38,23.06,15.38s20.5-3.84,23.06-15.38c12.81-3.84,24.34-8.96,34.59-16.65h30.74c35.87,0,64.05,29.46,64.05,65.33Z"/>
    <path class="cls-2" d="m480.41,338.21c-70.46,0-114.02,69.18-102.48,116.58,6.41,52.52,47.4,119.14,102.48,119.14,60.21,0,103.77-79.43,103.77-133.23-1.28-56.36-47.4-102.48-103.77-102.48Zm0,215.22c-35.87,0-69.18-44.84-79.43-88.39,39.71,3.84,76.86-15.38,97.36-46.12,16.65,17.93,39.71,29.46,64.05,30.74-5.13,48.68-42.28,103.77-81.99,103.77Z"/>
  </g>
</svg>