<?xml version="1.0" encoding="UTF-8"?>
<svg id="Layer_2" data-name="Layer 2" xmlns="http://www.w3.org/2000/svg" xmlns:xlink="http://www.w3.org/1999/xlink" viewBox="0 0 788 788">
  <defs>
    <style>
      .cls-1 {
        fill: none;
      }

      .cls-1, .cls-2 {
        stroke-width: 0px;
      }

      .cls-3 {
        clip-path: url(#clippath);
      }

      .cls-2 {
        fill: #e3b856;
      }
    </style>
    <clipPath id="clippath">
      <rect class="cls-1" width="788" height="788"/>
    </clipPath>
  </defs>
  <g id="Layer_1-2" data-name="Layer 1">
    <g class="cls-3">
      <path class="cls-2" d="m54.73,787.81h419.4c13.5,0,25.86-4.92,35.41-13.06,22.47,8.43,46.79,13.06,72.17,13.06,113.62,0,206.05-92.43,206.05-206.05s-92.43-206.05-206.05-206.05c-18.28,0-35.99,2.4-52.88,6.89v-189.24c0-30.16-24.54-54.7-54.7-54.7h-51.06v-21.88c0-30.17-24.54-54.7-54.7-54.7h-15.77C344.32,26.59,312.43.08,274.46.08h-18.23c-37.97,0-69.86,26.52-78.15,62h-17.59c-30.16,0-54.7,24.54-54.7,54.7v21.88h-51.06C24.57,138.66.03,163.2.03,193.36v539.74c0,30.17,24.54,54.7,54.7,54.7ZM36.49,193.36c0-10.05,8.18-18.23,18.23-18.23h51.06c0,30.17,24.54,54.7,54.7,54.7h207.88c30.16,0,54.7-24.54,54.7-54.7h51.06c10.05,0,18.23,8.18,18.23,18.23v202.74c-22.49,10.87-42.72,25.7-59.77,43.59-3.32-3.47-7.98-5.64-13.17-5.64h-142.23c-10.07,0-18.23,8.16-18.23,18.23s8.16,18.23,18.23,18.23h131.14c-7.36,11.44-13.62,23.64-18.63,36.47h-112.51c-10.07,0-18.23,8.17-18.23,18.23s8.16,18.23,18.23,18.23h102.05c-2.34,12.41-3.58,25.21-3.58,38.29,0,1.22.02,2.44.04,3.65h-98.51c-10.07,0-18.23,8.16-18.23,18.23s8.16,18.23,18.23,18.23h102.4c2.49,12.6,6.15,24.8,10.83,36.47h-113.23c-10.07,0-18.23,8.16-18.23,18.23s8.16,18.23,18.23,18.23h132.34c14.63,22.2,33.43,41.42,55.28,56.53H54.73c-10.05,0-18.23-8.18-18.23-18.23V193.36Zm123.99-94.82h33.73c10.07,0,18.23-8.17,18.23-18.23,0-24.13,19.64-43.77,43.77-43.77h18.23c24.13,0,43.76,19.64,43.76,43.77,0,10.07,8.17,18.23,18.23,18.23h31.91c10.05,0,18.23,8.18,18.23,18.23v58.35c0,10.06-8.18,18.23-18.23,18.23h-207.88c-10.05,0-18.23-8.18-18.23-18.23v-58.35c0-10.06,8.18-18.23,18.23-18.23Zm590.8,483.21c0,93.51-76.07,169.58-169.58,169.58s-169.58-76.07-169.58-169.58,76.07-169.58,169.58-169.58,169.58,76.07,169.58,169.58Z"/>
    </g>
    <path class="cls-2" d="m116.73,694.82h61.99c10.07,0,18.23-8.17,18.23-18.23v-72.94c0-10.07-8.16-18.23-18.23-18.23h-61.99c-10.07,0-18.23,8.16-18.23,18.23v72.94c0,10.07,8.16,18.23,18.23,18.23Zm18.23-72.94h25.53v36.47h-25.53v-36.47Z"/>
    <path class="cls-2" d="m116.73,543.47h61.99c10.07,0,18.23-8.16,18.23-18.23v-72.94c0-10.07-8.16-18.23-18.23-18.23h-61.99c-10.07,0-18.23,8.16-18.23,18.23v72.94c0,10.07,8.16,18.23,18.23,18.23Zm18.23-72.94h25.53v36.47h-25.53v-36.47Z"/>
    <path class="cls-2" d="m116.73,379.36h61.99c10.07,0,18.23-8.17,18.23-18.23v-72.94c0-10.07-8.16-18.23-18.23-18.23h-61.99c-10.07,0-18.23,8.16-18.23,18.23v72.94c0,10.07,8.16,18.23,18.23,18.23Zm18.23-72.94h25.53v36.47h-25.53v-36.47Z"/>
    <path class="cls-2" d="m277.19,379.36h142.23c10.07,0,18.23-8.17,18.23-18.23s-8.17-18.23-18.23-18.23h-142.23c-10.07,0-18.23,8.16-18.23,18.23s8.16,18.23,18.23,18.23Z"/>
    <path class="cls-2" d="m277.19,306.42h142.23c10.07,0,18.23-8.17,18.23-18.23s-8.17-18.23-18.23-18.23h-142.23c-10.07,0-18.23,8.16-18.23,18.23s8.16,18.23,18.23,18.23Z"/>
    <path class="cls-2" d="m295.43,87.6c0,1.02-.05,2.03-.15,3.04s-.24,2.01-.44,3.01c-.2,1-.45,1.98-.74,2.95-.3.97-.64,1.93-1.03,2.86-.39.94-.82,1.85-1.3,2.75s-1,1.77-1.56,2.61-1.17,1.66-1.81,2.44-1.32,1.54-2.04,2.26-1.47,1.4-2.26,2.04-1.6,1.25-2.44,1.81-1.71,1.08-2.61,1.56-1.81.91-2.75,1.3-1.9.73-2.86,1.03c-.97.29-1.96.54-2.95.74s-1.99.34-3.01.44-2.03.15-3.04.15-2.03-.05-3.04-.15-2.02-.24-3.01-.44-1.98-.45-2.95-.74c-.97-.3-1.92-.64-2.86-1.03-.94-.39-1.86-.82-2.75-1.3-.9-.48-1.77-1-2.61-1.56-.85-.56-1.66-1.17-2.45-1.81-.78-.65-1.54-1.32-2.25-2.04-.72-.72-1.4-1.47-2.05-2.26-.64-.79-1.24-1.6-1.81-2.44-.56-.84-1.08-1.71-1.56-2.61s-.91-1.81-1.3-2.75c-.39-.94-.73-1.9-1.02-2.86-.3-.97-.54-1.95-.74-2.95-.2-.99-.35-1.99-.45-3.01s-.15-2.03-.15-3.04.05-2.03.15-3.04.25-2.02.45-3.01.44-1.98.74-2.95c.29-.97.64-1.93,1.02-2.86.39-.94.82-1.86,1.3-2.75.48-.9,1-1.77,1.56-2.61.57-.84,1.17-1.66,1.81-2.45.65-.78,1.33-1.53,2.05-2.25.71-.72,1.47-1.4,2.25-2.05.79-.64,1.6-1.24,2.45-1.81.84-.57,1.71-1.09,2.61-1.57.89-.48,1.81-.91,2.75-1.3.94-.39,1.89-.73,2.86-1.03.97-.3,1.96-.54,2.95-.74s2-.35,3.01-.45,2.02-.15,3.04-.15,2.03.05,3.04.15,2.01.25,3.01.45,1.98.44,2.95.74c.97.29,1.93.64,2.86,1.03.94.39,1.85.82,2.75,1.3s1.77,1,2.61,1.57c.84.56,1.66,1.17,2.44,1.81.79.65,1.54,1.33,2.26,2.05s1.4,1.47,2.04,2.25c.65.79,1.25,1.6,1.81,2.45s1.08,1.71,1.56,2.61c.48.89.91,1.81,1.3,2.75.39.94.73,1.89,1.03,2.86.29.97.54,1.95.74,2.95s.34,2,.44,3.01.15,2.02.15,3.04Z"/>
    <path class="cls-2" d="m571.33,596.76l84.34,58.35c3.16,2.19,6.78,3.24,10.35,3.24,5.79,0,11.47-2.74,15.02-7.86,5.73-8.28,3.66-19.64-4.63-25.37l-76.47-52.92v-83.44c0-10.07-8.16-18.23-18.23-18.23s-18.23,8.17-18.23,18.23v92.99c0,5.99,2.94,11.59,7.86,15Z"/>
  </g>
</svg>