<?xml version="1.0" encoding="UTF-8"?>
<svg id="Layer_2" data-name="Layer 2" xmlns="http://www.w3.org/2000/svg" xmlns:xlink="http://www.w3.org/1999/xlink" viewBox="0 0 764 764">
  <defs>
    <style>
      .cls-1 {
        fill: none;
      }

      .cls-1, .cls-2 {
        stroke-width: 0px;
      }

      .cls-3 {
        clip-path: url(#clippath-1);
      }

      .cls-4 {
        clip-path: url(#clippath);
      }

      .cls-2 {
        fill: #1e0d64;
      }
    </style>
    <clipPath id="clippath">
      <rect class="cls-1" width="764" height="764"/>
    </clipPath>
    <clipPath id="clippath-1">
      <path class="cls-1" d="m739.7,0h-246.57c-13.6,0-24.66,11.06-24.66,24.66v24.66H197.26c-27.2,0-49.31,22.11-49.31,49.31v123.28h-61.64C38.72,221.91,0,260.64,0,308.21c0,20.39,16.59,36.98,36.99,36.98h75.48l35.47,88.67v268.85c0,33.99,27.65,61.64,61.64,61.64h345.2c33.99,0,61.64-27.65,61.64-61.64v-36.98h123.28c13.6,0,24.66-11.06,24.66-24.66V24.66c0-13.6-11.06-24.66-24.66-24.66Zm0,443.82h-49.31V24.66h49.31v419.16Zm-49.31,123.29h49.31v24.66h-49.31v-24.66Zm0-24.66v-24.66h49.31v24.66h-49.31Zm0-49.32v-24.66h49.31v24.66h-49.31ZM197.26,73.97h271.22v49.31H197.26c-13.6,0-24.66-11.06-24.66-24.66s11.06-24.66,24.66-24.66ZM36.99,320.54c-6.81,0-12.33-5.53-12.33-12.33,0-4.22.43-8.35,1.25-12.33h48.07v-24.66h-36.67c11.26-14.88,28.94-24.66,48.99-24.66h277.39l36.98-49.31h13.71l-29.22,87.68-86.66,14.45,15.86,21.16h-117.12v-24.66h-104.51l9.86,24.66H36.99Zm261.93,24.66c-1.97,11.93-3.03,24.29-3.03,36.98s1.13,25.56,3.01,36.98h-47.07c-3.34-11.77-5.26-24.15-5.26-36.98s1.8-25.02,5.19-36.98h47.16Zm144.91,36.98c0,13.48-1.31,25.73-3.42,36.98h-40.79l33.4-33.4-11.59-40.57h18.9c2.13,11.29,3.5,23.48,3.5,36.98Zm-61.6,133.26c-11.54-8.27-37.39-30.55-51.7-71.61h103.47c-14.25,41.31-40.13,63.38-51.77,71.61Zm32.17-194.9l-6.97-24.39,5.38-16.13c7.86,10.81,15.34,24.2,21.02,40.49h-19.43v.02Zm-9.06,58.05l-9.48,9.48-53.27-71.04,43.11-7.19,19.64,68.74Zm-16.98,40.57h-64.35c-2.13-11.27-3.45-23.51-3.45-36.98s1.45-25.13,3.7-36.98h8.63l55.47,73.97Zm-83.77,24.66c8.92,30.02,23.34,52.27,37.03,67.76-34.86-10.96-63.61-35.7-80.06-67.76h43.04Zm155.21,0h43.04c-16.45,32.05-45.2,56.8-80.06,67.76,13.69-15.48,28.1-37.73,37.02-67.76Zm58.01-61.64c0,12.83-1.91,25.21-5.25,36.98h-47.07c1.87-11.43,3.01-23.68,3.01-36.98s-1.33-25.49-3.23-36.98h47.26c3.39,11.85,5.29,24.25,5.29,36.98Zm-58.11-61.64c-8.96-29.97-23.4-52.2-37.33-67.92,35.26,10.96,63.9,36.02,80.32,67.92h-42.99Zm-287.08,0v98.63h-3.98l-39.45-98.63h43.43Zm419.17,382.18c0,20.39-16.59,36.98-36.98,36.98H209.58c-20.39,0-36.98-16.59-36.98-36.98v-258.9h24.66v-98.63h29.06c-2.84,12.06-4.4,24.42-4.4,36.98,0,88.37,71.9,160.27,160.27,160.27s160.27-71.9,160.27-160.27c0-70.19-46.65-132.48-112.68-153.07l18.84-56.52h-60.27l-36.98,49.31h-178.76v-80.82c7.29,4.24,15.63,6.85,24.66,6.85h357.53c20.39,0,36.98,16.59,36.98,36.98v517.79Zm-36.98-579.43h-61.65V24.66h172.6v616.42h-49.31V184.93c0-33.99-27.65-61.64-61.64-61.64Zm135.61,517.79v-24.66h49.31v24.66h-49.31ZM517.79,49.32h24.66v24.66h-24.66v-24.66Zm49.32,0h24.66v24.66h-24.66v-24.66Zm73.97,24.66h-24.66v-24.66h24.66v24.66ZM197.26,690.39h123.29v-123.28h-123.29v123.28Zm24.66-24.66v-24.66h73.97v24.66h-73.97Zm73.97-49.31h-24.66v-24.66h24.66v24.66Zm-49.32-24.66v24.66h-24.66v-24.66h24.66Zm147.94,24.66h-49.31v-24.66h49.31v24.66Zm24.66-24.66h147.94v24.66h-147.94v-24.66Zm-73.97,49.31h123.28v24.66h-123.28v-24.66Zm147.94,0h24.66v24.66h-24.66v-24.66Zm49.32,0h24.66v24.66h-24.66v-24.66Z"/>
    </clipPath>
  </defs>
  <g id="Layer_1-2" data-name="Layer 1">
    <g class="cls-4">
      <g class="cls-3">
        <path class="cls-2" d="m0,0v764h764V0H0Z"/>
      </g>
    </g>
  </g>
</svg>