<?xml version="1.0" encoding="UTF-8"?>
<svg id="Layer_2" data-name="Layer 2" xmlns="http://www.w3.org/2000/svg" xmlns:xlink="http://www.w3.org/1999/xlink" viewBox="0 0 846 943">
  <defs>
    <style>
      .cls-1 {
        fill: none;
      }

      .cls-1, .cls-2 {
        stroke-width: 0px;
      }

      .cls-3 {
        clip-path: url(#clippath);
      }

      .cls-2 {
        fill: #1e0d64;
      }
    </style>
    <clipPath id="clippath">
      <rect class="cls-1" width="846" height="943"/>
    </clipPath>
  </defs>
  <g id="Layer_1-2" data-name="Layer 1">
    <g class="cls-3">
      <path class="cls-2" d="m814.61.26H221c-17.41,0-31.57,14.16-31.57,31.57v334.09c0,8.39,6.81,15.2,15.2,15.2s15.2-6.81,15.2-15.2V31.83c0-.63.54-1.17,1.17-1.17h593.61c.63,0,1.17.54,1.17,1.17v678.76h-78.09c-12.89,0-23.39,10.49-23.39,23.38v78.1h-210.1c-8.39,0-15.2,6.81-15.2,15.2s6.81,15.2,15.2,15.2h218.52c8.56,0,16.28-3.2,22.32-9.24l91.89-91.89c6.05-6.05,9.25-13.77,9.25-22.32V31.83c0-17.41-14.16-31.57-31.57-31.57Zm-69.91,790.31v-49.59h49.58l-49.58,49.59Zm-444.3-510.84h272.22c8.4,0,15.2-6.81,15.2-15.2V114.81c0-8.4-6.81-15.2-15.2-15.2h-272.22c-8.39,0-15.2,6.81-15.2,15.2v149.72c0,8.39,6.81,15.2,15.2,15.2Zm15.2-149.72h241.82v119.32h-241.82v-119.32Zm434.81,522.29c0,8.4-6.8,15.2-15.2,15.2h-164.54c-8.4,0-15.2-6.81-15.2-15.2s6.8-15.2,15.2-15.2h164.54c8.4,0,15.2,6.81,15.2,15.2Zm0-76.72c0,8.4-6.8,15.2-15.2,15.2h-164.54c-8.4,0-15.2-6.8-15.2-15.2s6.8-15.2,15.2-15.2h164.54c8.4,0,15.2,6.81,15.2,15.2Zm0-76.72c0,8.4-6.8,15.2-15.2,15.2h-251.85c-8.39,0-15.2-6.81-15.2-15.2s6.81-15.2,15.2-15.2h251.85c8.4,0,15.2,6.81,15.2,15.2Zm0-76.72c0,8.4-6.8,15.2-15.2,15.2h-336.59c-8.39,0-15.2-6.8-15.2-15.2s6.81-15.2,15.2-15.2h336.59c8.4,0,15.2,6.81,15.2,15.2Zm-465.21-76.72c0-8.4,6.81-15.2,15.2-15.2h434.81c8.4,0,15.2,6.8,15.2,15.2s-6.8,15.2-15.2,15.2h-434.81c-8.39,0-15.2-6.8-15.2-15.2Zm355.18-194.85c0-8.4,6.81-15.2,15.2-15.2h79.64c8.4,0,15.2,6.81,15.2,15.2s-6.8,15.2-15.2,15.2h-79.64c-8.39,0-15.2-6.81-15.2-15.2Zm0,78.24c0-8.4,6.81-15.2,15.2-15.2h79.64c8.4,0,15.2,6.81,15.2,15.2s-6.8,15.2-15.2,15.2h-79.64c-8.39,0-15.2-6.81-15.2-15.2ZM183.56,811.22l235.92-235.93c9.06-9.05,14.05-21.11,14.05-33.97s-4.99-24.91-14.04-33.96l-9.29-9.29c-18.72-18.72-49.2-18.73-67.94,0l-235.93,235.93c-1.89,1.89-3.24,4.23-3.93,6.81l-20.4,76.13c-1.4,5.24.09,10.84,3.93,14.68,2.89,2.89,6.77,4.45,10.75,4.45,1.31,0,2.64-.17,3.93-.52l76.13-20.4c2.58-.69,4.93-2.05,6.82-3.94Zm-44.98-66.48l187.32-187.32,34.23,34.23-187.32,187.32-34.23-34.24Zm250.13-225.18l9.29,9.29c3.31,3.32,5.14,7.74,5.14,12.47s-1.83,9.16-5.15,12.47l-16.36,16.36-34.23-34.23,16.36-16.36c6.88-6.88,18.07-6.88,24.95,0Zm-263.76,254.54l18.5,18.5-25.27,6.78,6.77-25.28Zm-75.59-23.09c3.36,7.69-.14,16.65-7.83,20.02-1.98.87-4.05,1.28-6.09,1.28-5.85,0-11.43-3.4-13.93-9.11C7.24,730.61.02,695.91.02,660.05.02,518.07,115.52,402.56,257.51,402.56c9.46,0,18.88.51,28.22,1.53l-8.94-9.13c-5.88-5.99-5.79-15.61.21-21.49,5.99-5.89,15.62-5.78,21.49.21l43.94,44.81c.84.83,1.58,1.74,2.21,2.73.43.67.79,1.37,1.1,2.09,0,0,0,.01,0,.01h0c1.36,3.15,1.67,6.77.63,10.3-.09.33-.2.65-.32.96-1.18,3.22-3.35,5.81-6.05,7.55-.69.44-1.42.83-2.19,1.17-.27.11-.54.22-.82.32l-58.93,22.09c-7.86,2.95-16.62-1.04-19.57-8.9-2.95-7.86,1.04-16.62,8.9-19.57l9.34-3.5c-6.38-.53-12.79-.8-19.23-.8-125.22,0-227.09,101.88-227.09,227.09,0,31.64,6.38,62.24,18.95,90.96Zm465.64-90.96c0,141.98-115.51,257.49-257.49,257.49-21.02,0-41.58-2.47-61.53-7.36l6.14,7.8c5.19,6.59,4.05,16.15-2.55,21.34-2.79,2.19-6.1,3.26-9.39,3.26-4.5,0-8.96-1.99-11.95-5.8l-38.8-49.3c-.89-1.09-1.62-2.29-2.18-3.56-.28-.64-.52-1.29-.7-1.95,0,0,0-.01,0-.02h0c-.94-3.34-.76-7.01.77-10.39.15-.34.31-.67.49-.99,1.63-3.02,4.15-5.27,7.07-6.6.7-.32,1.42-.58,2.17-.79,0,0,.01,0,.02,0,.14-.04.28-.08.42-.11l61.03-15.57c8.13-2.08,16.41,2.84,18.48,10.97,2.07,8.13-2.84,16.41-10.97,18.48l-13.66,3.48c17.86,4.46,36.3,6.7,55.14,6.7,125.22,0,227.09-101.88,227.09-227.09,0-27.34-4.8-54.06-14.28-79.44-2.93-7.86,1.06-16.61,8.92-19.55,7.86-2.94,16.62,1.06,19.56,8.92,10.74,28.79,16.19,59.09,16.19,90.07Z"/>
    </g>
  </g>
</svg>