<?xml version="1.0" encoding="UTF-8"?>
<svg id="Layer_2" data-name="Layer 2" xmlns="http://www.w3.org/2000/svg" xmlns:xlink="http://www.w3.org/1999/xlink" viewBox="0 0 1092 935">
  <defs>
    <style>
      .cls-1 {
        fill: none;
      }

      .cls-1, .cls-2 {
        stroke-width: 0px;
      }

      .cls-3 {
        clip-path: url(#clippath);
      }

      .cls-2 {
        fill: #230e81;
      }
    </style>
    <clipPath id="clippath">
      <rect class="cls-1" width="1092" height="935"/>
    </clipPath>
  </defs>
  <g id="Layer_1-2" data-name="Layer 1">
    <g class="cls-3">
      <path class="cls-2" d="m779.92,77.93h116.9v197.73l-116.9-91.94v-105.79Zm-233.81-28.31l389.68,306.11v540.52h-389.68v-428.64h-272.77v428.64h-116.9V355.73L546.11,49.62Zm0-49.62L.57,428.64l24.05,30.59,92.85-72.91v548.9h194.84v-428.64h194.84v428.64h467.61V386.32l92.85,72.91,24.05-30.59-155.87-122.53V38.97h-194.84v114.01L546.11,0"/>
    </g>
    <path class="cls-2" d="m701.98,506.58h116.91v155.87h-116.91v-155.87Zm-38.96-38.97v233.8h194.83v-233.8h-194.83"/>
  </g>
</svg>