<?xml version="1.0" encoding="UTF-8"?>
<svg id="Layer_2" data-name="Layer 2" xmlns="http://www.w3.org/2000/svg" xmlns:xlink="http://www.w3.org/1999/xlink" viewBox="0 0 945 945">
  <defs>
    <style>
      .cls-1 {
        fill: none;
      }

      .cls-1, .cls-2 {
        stroke-width: 0px;
      }

      .cls-2 {
        fill: #bc852f;
      }

      .cls-3 {
        clip-path: url(#clippath);
      }
    </style>
    <clipPath id="clippath">
      <rect class="cls-1" width="945" height="945"/>
    </clipPath>
  </defs>
  <g id="Layer_1-2" data-name="Layer 1">
    <g class="cls-3">
      <path class="cls-2" d="m362.4,535.71H47.27c-26.07,0-47.27,21.2-47.27,47.27v315.13c0,26.07,21.2,47.27,47.27,47.27h315.13c26.06,0,47.27-21.2,47.27-47.27v-315.13c0-26.06-21.2-47.27-47.27-47.27Zm0,31.51c8.68,0,15.76,7.07,15.76,15.76v63.03h-94.54v-78.78h78.78Zm-110.28,0l.09,155.82-.09-.06h-.02l-37.67-28.97c-5.66-4.36-13.54-4.36-19.2,0l-37.67,28.97v-155.76h94.55Zm-204.84,0h78.78v78.78H31.51v-63.03c0-8.68,7.07-15.76,15.76-15.76Zm315.13,346.64H47.27c-8.69,0-15.76-7.07-15.76-15.76v-220.59h94.54v43.51c0,10.83,4.55,21.63,13.45,27.79,11.52,7.97,26.39,7.53,37.27-.85l28.07-21.58,26.72,20.56c8.61,6.63,20.03,9.46,30.32,6.02,13.26-4.43,21.73-16.41,21.73-29.97v-45.46h94.54v220.59c0,8.69-7.07,15.76-15.76,15.76Zm105.03-736.57l-114.27-114.26c-9.03-9.05-22.53-11.7-34.33-6.83-11.82,4.89-19.46,16.32-19.46,29.11l-.2,33.64c-104.47,17.48-175.7,58.69-211.72,122.47-43.7,77.39-24.11,166.33.02,227.34,5.53,15.27,29.46,11.68,30.34-4.44,3.78-43.67,42.08-105.06,91.08-145.98,32.69-27.3,64.99-41.02,90.48-38.51v34.02c0,12.79,7.64,24.22,19.46,29.11,11.79,4.9,25.3,2.2,34.33-6.83l114.27-114.27c12.29-12.29,12.29-32.28,0-44.56Zm-136.55,136.55v-34.02c0-16.14-12.38-29.94-28.18-31.43-44.01-4.04-86.28,22.61-114.01,45.75-38.13,31.84-69.86,74.15-87.55,114.36-11.58-47.59-13.75-102.94,13.73-151.58,31.11-55.09,94.87-91.05,189.47-106.9,15.37-2.55,26.53-15.61,26.53-31.04v-33.68l114.27,114.27-114.27,114.27Zm496.69,172.19c-3.78,43.67-42.08,105.06-91.08,145.98-32.7,27.29-65.11,40.98-90.48,38.52v-34.02c0-12.79-7.64-24.22-19.45-29.11-11.81-4.9-25.31-2.21-34.34,6.83l-114.27,114.27c-12.29,12.29-12.29,32.27,0,44.56l114.27,114.27c9.07,9.1,22.66,11.7,34.34,6.83,11.81-4.9,19.45-16.33,19.45-29.11l.2-33.64c104.47-17.49,175.7-58.69,211.72-122.47,43.7-77.38,24.12-166.33-.02-227.33-5.46-15.22-29.47-11.72-30.34,4.44Zm2.92,207.4c-31.11,55.09-94.86,91.05-189.49,106.89-15.36,2.58-26.51,15.63-26.51,31.04v33.68l-114.27-114.27,114.27-114.26v34.02c0,16.14,12.38,29.94,28.18,31.43,44.08,4.08,86.29-22.61,114.01-45.76,38.13-31.84,69.86-74.14,87.55-114.36,11.59,47.59,13.75,102.94-13.73,151.58Zm-657.18,188.93c0,8.7-7.05,15.76-15.76,15.76H63.03c-8.7,0-15.76-7.05-15.76-15.76s7.05-15.76,15.76-15.76h94.54c8.7,0,15.76,7.05,15.76,15.76Zm0-47.27c0,8.7-7.05,15.76-15.76,15.76H63.03c-8.7,0-15.76-7.06-15.76-15.76s7.05-15.76,15.76-15.76h94.54c8.7,0,15.76,7.06,15.76,15.76ZM898.1,0h-315.13c-26.06,0-47.27,21.2-47.27,47.27v315.13c0,26.07,21.2,47.27,47.27,47.27h315.13c26.07,0,47.27-21.2,47.27-47.27V47.27c0-26.06-21.2-47.27-47.27-47.27Zm0,31.51c8.69,0,15.76,7.07,15.76,15.76v63.03h-94.54V31.51h78.78Zm-110.28,0l.09,155.82-.09-.06h-.02l-37.67-28.97c-5.66-4.36-13.54-4.36-19.2,0l-37.67,28.97V31.51h94.55Zm-204.85,0h78.78v78.78h-94.54v-63.03c0-8.68,7.07-15.76,15.76-15.76Zm315.13,346.64h-315.13c-8.68,0-15.76-7.07-15.76-15.76v-220.58h94.54v43.5c0,10.83,4.55,21.63,13.45,27.79,11.52,7.97,26.39,7.53,37.27-.85l28.06-21.58,26.73,20.56c8.61,6.62,20.02,9.46,30.32,6.01,13.26-4.43,21.73-16.41,21.73-29.97v-45.46h94.54v220.58c0,8.69-7.07,15.76-15.76,15.76Zm-189.07-31.52c0,8.7-7.05,15.76-15.76,15.76h-94.54c-8.7,0-15.76-7.05-15.76-15.76s7.06-15.76,15.76-15.76h94.54c8.7,0,15.76,7.06,15.76,15.76Zm0-47.27c0,8.7-7.05,15.76-15.76,15.76h-94.54c-8.7,0-15.76-7.06-15.76-15.76s7.06-15.76,15.76-15.76h94.54c8.7,0,15.76,7.06,15.76,15.76Z"/>
    </g>
  </g>
</svg>