<?xml version="1.0" encoding="UTF-8"?>
<svg id="Layer_2" data-name="Layer 2" xmlns="http://www.w3.org/2000/svg" xmlns:xlink="http://www.w3.org/1999/xlink" viewBox="0 0 794.88 723.4">
  <defs>
    <style>
      .cls-1 {
        fill: none;
      }

      .cls-1, .cls-2 {
        stroke-width: 0px;
      }

      .cls-2 {
        fill: #bc852f;
      }

      .cls-3 {
        clip-path: url(#clippath-1);
      }

      .cls-4 {
        clip-path: url(#clippath);
      }
    </style>
    <clipPath id="clippath">
      <rect class="cls-1" y="560" width="129.33" height="163.4"/>
    </clipPath>
    <clipPath id="clippath-1">
      <rect class="cls-1" x="44" width="750.88" height="678.67"/>
    </clipPath>
  </defs>
  <g id="Layer_1-2" data-name="Layer 1">
    <path class="cls-2" d="m438.22,340.26c-68.21-37.92-134.63-38.91-201.12.72-13.84,8.25-21.44,20.01-21.86,35.55-.47,17.13.77,34.3,1.26,51.45,4.23,10.74,13.46,5.19,20.13,5.31,34.44.62,68.9.29,103.35.29h81v-71.07c5.57-7.18,11.13-14.35,17.24-22.23"/>
    <path class="cls-2" d="m634.74,344.48c-55.49-27.01-111.51-33.69-167.94-2.55-12.06,6.65-25.99,11.44-29.84,27.19-7.21,15.6-1.83,32.17-3.74,48.16-1.84,15.46,5.09,19.6,18.97,15.78,1.58-.2,3.17-.39,4.75-.58,16.36.36,32.78,1.74,49.06.8,16.63-.95,34.5,5.77,49.64-6.61,34.55-19.15,69.11-38.3,103.7-57.47-10.16-15.68-12.13-18.65-24.59-24.71"/>
    <path class="cls-2" d="m338.03,295.94c32.59-.22,61.08-29.36,60.56-61.94-.54-33.97-27.06-60.58-60.55-60.76-34.9-.18-61.04,25.2-61.6,59.8-.57,35.13,26.85,63.14,61.59,62.9"/>
    <path class="cls-2" d="m549.2,305.95c30.99-.48,55.14-26.15,54.47-57.92-.64-30.71-27.08-56.07-57.65-55.3-30.74.78-55.95,27.4-55.3,58.39.64,30.53,27.07,55.31,58.48,54.82"/>
    <g class="cls-4">
      <path class="cls-2" d="m39.54,560.55l-34.62,4.33s-40.03,131.44,112.52,157.95l10.82-36.79s-62.21-36.78-88.72-125.49"/>
    </g>
    <g class="cls-3">
      <path class="cls-2" d="m397.27,50.19c176.5-13.66,331.84,114.67,353.44,288.6l44.41-26.59c-15.35-85.57-59.31-162.62-126.23-219.92C592.11,26.54,494.33-5.37,393.57,2.44c-100.77,7.79-192.46,54.37-258.2,131.14S37.72,308.11,45.53,408.88c3.2,41.61,13.05,81.66,28.89,118.98.08.2.17.39.26.59,2.2,5.18,4.59,10.27,7.14,15.28-10.48,5.04-20.97,10.08-31.45,15.12.1.26.21.51.32.77,17.01,39.93,41.86,76.02,72.38,106.88,3.73,3.78,7.46,7.55,11.21,11.34,13.44-12.79,27.64-23.64,42.56-32.63,33.02-19.89,69.64-30.81,109.72-34.05,54.84-4.42,109.74-1.3,164.61-2.14,12.73-.2,24.45-1.27,35.41-9.38,66.08-48.9,132.62-97.18,198.76-145.99,18.54-13.69,23.83-32.01,13.49-46.03-13.39-18.2-30.06-16.28-47.69-6.08-37.92,21.89-75.83,43.78-114.08,65.07-7.95,4.45-9.86,9.52-10.34,18.34-2.03,38.58-25.69,61.74-64.93,62.67-41.55.99-83.16.2-124.73.17-3.97,0-7.78-.53-11.19-5.46,1.1-7.02-2.33-15.55,2.57-24.51,6.08-.29,12.22-.79,18.36-.82,38.42-.06,76.87.28,115.29-.2,18.7-.22,31.8-8.65,32.96-29.01,1.07-18.76-8.73-31.35-27.07-31.61-65.89-.87-131.78-.22-197.66.03-3.78.03-7.92.87-11.32,2.51-44.69,21.38-89.33,42.82-133.96,64.24-2.54-5.24-4.98-10.54-7.24-15.95-13.26-31.61-21.72-65.82-24.51-101.8C79.22,223.51,215.58,64.26,397.27,50.19"/>
    </g>
  </g>
</svg>