<?xml version="1.0" encoding="UTF-8"?>
<svg id="Layer_2" data-name="Layer 2" xmlns="http://www.w3.org/2000/svg" xmlns:xlink="http://www.w3.org/1999/xlink" viewBox="0 0 1231.99 849">
  <defs>
    <style>
      .cls-1 {
        fill: none;
      }

      .cls-1, .cls-2 {
        stroke-width: 0px;
      }

      .cls-2 {
        fill: #bc852f;
      }

      .cls-3 {
        clip-path: url(#clippath);
      }
    </style>
    <clipPath id="clippath">
      <rect class="cls-1" width="1231.99" height="849"/>
    </clipPath>
  </defs>
  <g id="Layer_1-2" data-name="Layer 1">
    <g class="cls-3">
      <path class="cls-2" d="m563.57,520.22v-155.06h261.26l106.6,155.06h-367.86Zm582.58,134.92v51.6c0,6.06-4.93,10.99-10.99,10.99h-64.16c-.07-.42-.17-.83-.26-1.25-.14-.75-.3-1.51-.46-2.26-.21-.97-.44-1.94-.68-2.92-.18-.73-.36-1.46-.55-2.19-.26-.98-.55-1.96-.84-2.93-.2-.69-.41-1.39-.62-2.06-.33-1.05-.69-2.08-1.06-3.13-.2-.58-.4-1.18-.62-1.77-.52-1.39-1.06-2.76-1.63-4.12-.08-.22-.17-.45-.27-.67-.67-1.56-1.37-3.11-2.1-4.64-.26-.53-.54-1.04-.79-1.56-.5-1.01-1.01-2.02-1.54-3.01-.32-.6-.67-1.19-.99-1.78-.51-.9-1.01-1.8-1.54-2.68-.36-.61-.74-1.21-1.11-1.81-.53-.85-1.07-1.69-1.63-2.53-.4-.6-.79-1.19-1.2-1.78-.57-.82-1.15-1.64-1.74-2.45-.42-.57-.83-1.14-1.26-1.69-.62-.82-1.27-1.63-1.91-2.44-.42-.51-.83-1.04-1.25-1.54-.73-.88-1.47-1.72-2.21-2.57-.38-.42-.74-.85-1.13-1.27-1.09-1.19-2.2-2.35-3.34-3.5-.05-.05-.1-.1-.16-.17-1.2-1.2-2.43-2.36-3.68-3.51-.4-.35-.79-.7-1.19-1.04-.88-.78-1.74-1.55-2.64-2.3-.5-.41-1.01-.8-1.51-1.21-.83-.66-1.65-1.31-2.48-1.96-.55-.42-1.1-.81-1.66-1.22-.82-.6-1.65-1.2-2.49-1.78-.57-.4-1.16-.78-1.73-1.16-.84-.57-1.71-1.13-2.58-1.66-.59-.36-1.17-.73-1.77-1.09-.9-.54-1.82-1.06-2.72-1.57-.58-.32-1.15-.64-1.72-.95-1.02-.54-2.05-1.07-3.08-1.58-.51-.24-.98-.51-1.5-.74-1.52-.73-3.07-1.43-4.63-2.1-.02-.01-.03-.02-.04-.02-1.58-.67-3.19-1.3-4.8-1.9-.52-.18-1.04-.35-1.55-.54-1.11-.4-2.23-.78-3.35-1.15-.64-.19-1.28-.38-1.91-.57-1.03-.31-2.06-.61-3.11-.89-.69-.18-1.37-.34-2.07-.52-1.01-.24-2.02-.49-3.05-.7-.72-.16-1.42-.3-2.14-.45-1.03-.19-2.05-.38-3.09-.55-.72-.12-1.43-.23-2.15-.34-1.08-.16-2.16-.29-3.25-.42-.68-.07-1.37-.16-2.06-.22-1.19-.11-2.4-.2-3.59-.28-.6-.05-1.19-.1-1.78-.12-1.8-.09-3.61-.14-5.43-.14s-3.63.05-5.42.14c-.59.02-1.18.07-1.77.12-1.21.07-2.42.16-3.61.28-.68.06-1.36.15-2.04.22-1.09.13-2.18.26-3.27.42-.71.11-1.41.22-2.12.34-1.05.17-2.09.35-3.14.56-.69.14-1.4.28-2.09.44-1.05.21-2.08.46-3.11.72-.67.16-1.33.32-2,.5-1.08.28-2.15.59-3.21.91-.6.18-1.21.35-1.81.54-1.17.38-2.35.78-3.52,1.19-.46.16-.93.32-1.38.48-3.26,1.21-6.45,2.55-9.56,4.05-.42.2-.82.42-1.25.63-1.11.56-2.22,1.11-3.32,1.7-.52.28-1.03.58-1.54.86-.98.55-1.97,1.11-2.93,1.69-.53.32-1.07.65-1.59.98-.93.58-1.85,1.17-2.76,1.77-.54.35-1.05.7-1.57,1.07-.9.62-1.8,1.25-2.68,1.91-.5.36-.99.72-1.48,1.1-.92.69-1.81,1.4-2.69,2.11-.44.36-.88.7-1.31,1.07-.99.82-1.97,1.67-2.93,2.54-.3.27-.61.52-.91.8-2.54,2.3-4.96,4.72-7.26,7.26-.31.33-.59.67-.9,1.01-.82.93-1.65,1.87-2.45,2.82-.38.45-.73.91-1.1,1.37-.7.86-1.39,1.73-2.07,2.63-.39.5-.76,1.02-1.13,1.54-.65.86-1.27,1.72-1.86,2.61-.38.53-.74,1.08-1.11,1.64-.58.89-1.16,1.78-1.71,2.67-.35.56-.69,1.11-1.04,1.67-.56.94-1.1,1.9-1.64,2.86-.3.53-.61,1.07-.9,1.61-.57,1.06-1.12,2.15-1.67,3.24-.22.44-.46.88-.67,1.33-.74,1.54-1.45,3.11-2.13,4.7-.03.08-.06.17-.09.26-.63,1.49-1.23,3.01-1.8,4.54-.2.54-.38,1.1-.57,1.65-.39,1.08-.76,2.15-1.11,3.25-.2.65-.4,1.33-.59,1.98-.3,1.01-.59,2.01-.86,3.03-.18.71-.36,1.41-.54,2.13-.23.98-.47,1.98-.68,2.97-.16.74-.31,1.48-.46,2.23-.08.42-.18.83-.26,1.26h-319.27v-81.99l25.18-25.19c3.77-3.76,5.89-8.86,5.89-14.18v-36.01h400.16c2.11.74,4.35,1.16,6.65,1.16h82.15c51.64,0,93.62,42.01,93.62,93.63Zm-256.07,82.67c0-39.31,31.99-71.3,71.3-71.3s71.29,31.98,71.29,71.3-31.97,71.3-71.29,71.3-71.3-31.98-71.3-71.3Zm-725.54,0c0-39.31,31.97-71.3,71.3-71.3s71.3,31.98,71.3,71.3-31.98,71.3-71.3,71.3-71.3-31.98-71.3-71.3Zm687.26,20.07c3.52,19.24,11.96,36.78,24.03,51.22H321.4c12.07-14.45,20.53-31.98,24.03-51.22h506.38Zm-800.73-51.14v-135.39c0-6.06,4.93-10.99,10.99-10.99h461.36v27.7l-25.19,25.19c-3.77,3.77-5.88,8.86-5.88,14.19v90.3h-146.9c-.08-.43-.18-.84-.27-1.27-.15-.74-.3-1.48-.45-2.2-.22-1.01-.45-2-.7-2.99-.17-.71-.35-1.41-.53-2.12-.27-1.02-.57-2.02-.87-3.03-.19-.66-.38-1.33-.58-1.98-.35-1.1-.73-2.18-1.11-3.26-.18-.55-.36-1.09-.57-1.64-.58-1.54-1.18-3.07-1.81-4.58-.03-.06-.05-.14-.08-.2-.68-1.59-1.38-3.16-2.13-4.71-.21-.45-.45-.89-.67-1.33-.54-1.09-1.09-2.18-1.67-3.25-.29-.54-.58-1.06-.89-1.59-.55-.96-1.08-1.93-1.65-2.87-.33-.55-.69-1.11-1.03-1.66-.57-.91-1.15-1.81-1.73-2.69-.35-.55-.72-1.09-1.09-1.63-.61-.88-1.23-1.76-1.88-2.63-.38-.51-.74-1.03-1.13-1.53-.68-.89-1.37-1.77-2.08-2.64-.36-.45-.71-.91-1.09-1.36-.8-.95-1.63-1.91-2.46-2.83-.3-.33-.58-.67-.88-.99-2.31-2.54-4.73-4.96-7.27-7.27-.29-.26-.6-.53-.9-.78-.96-.87-1.93-1.72-2.94-2.56-.43-.35-.86-.7-1.3-1.05-.89-.72-1.79-1.43-2.7-2.13-.48-.36-.98-.73-1.47-1.09-.89-.65-1.78-1.29-2.69-1.91-.51-.36-1.04-.71-1.57-1.06-.91-.61-1.83-1.2-2.76-1.78-.53-.33-1.06-.66-1.59-.98-.97-.58-1.95-1.14-2.93-1.69-.52-.28-1.02-.58-1.54-.86-1.1-.59-2.21-1.15-3.33-1.71-.42-.2-.82-.43-1.24-.62-3.11-1.5-6.3-2.84-9.55-4.05-.46-.16-.93-.31-1.39-.48-1.17-.41-2.33-.81-3.52-1.19-.6-.19-1.21-.36-1.81-.54-1.07-.32-2.13-.64-3.21-.91-.66-.18-1.32-.34-2-.5-1.03-.26-2.06-.51-3.1-.72-.71-.16-1.4-.3-2.1-.44-1.04-.2-2.09-.39-3.14-.56-.71-.12-1.41-.23-2.12-.34-1.09-.16-2.18-.29-3.27-.42-.67-.07-1.36-.16-2.04-.22-1.2-.11-2.41-.2-3.61-.28-.59-.05-1.17-.1-1.77-.12-1.8-.09-3.6-.14-5.42-.14s-3.64.05-5.43.14c-.59.02-1.18.07-1.77.12-1.21.07-2.42.16-3.61.28-.68.06-1.36.15-2.04.22-1.09.13-2.18.26-3.26.42-.72.11-1.42.22-2.13.34-1.05.17-2.08.35-3.13.56-.7.14-1.41.28-2.1.44-1.05.21-2.08.46-3.11.72-.66.16-1.33.32-2,.5-1.08.28-2.14.59-3.21.91-.59.18-1.19.35-1.81.54-1.17.38-2.35.78-3.52,1.19-.46.16-.93.32-1.38.48-3.26,1.21-6.45,2.55-9.55,4.05-.43.2-.84.42-1.26.63-1.11.56-2.22,1.11-3.32,1.7-.52.28-1.03.58-1.54.86-.98.55-1.96,1.11-2.92,1.69-.54.32-1.07.65-1.6.98-.93.58-1.85,1.17-2.76,1.77-.53.35-1.05.7-1.57,1.07-.9.62-1.79,1.25-2.68,1.91-.49.36-.99.72-1.48,1.1-.91.69-1.81,1.4-2.69,2.11-.43.36-.88.7-1.31,1.07-.99.82-1.97,1.67-2.93,2.54-.3.27-.61.52-.91.8-2.54,2.3-4.95,4.72-7.26,7.26-.3.33-.6.67-.89,1.01-.83.93-1.66,1.87-2.45,2.82-.38.45-.74.91-1.11,1.37-.7.86-1.39,1.74-2.07,2.63-.39.5-.76,1.02-1.13,1.54-.64.86-1.26,1.72-1.86,2.61-.38.53-.73,1.08-1.1,1.63-.59.89-1.17,1.79-1.73,2.69-.34.55-.68,1.1-1.02,1.66-.57.94-1.11,1.91-1.65,2.86-.3.53-.61,1.07-.9,1.61-.57,1.06-1.12,2.15-1.67,3.24-.21.44-.45.88-.66,1.33-.75,1.55-1.46,3.11-2.14,4.71-.02.06-.05.14-.07.2-.64,1.51-1.24,3.04-1.81,4.58-.2.54-.39,1.09-.58,1.64-.39,1.08-.76,2.16-1.1,3.26-.21.65-.4,1.32-.6,1.98-.3,1.01-.58,2.01-.85,3.03-.19.71-.36,1.41-.55,2.13-.23.98-.47,1.98-.68,2.98-.16.72-.31,1.46-.45,2.2-.09.43-.19.84-.27,1.27H62.07c-6.07,0-10.99-4.93-10.99-10.99Zm294.61-341.58h177.75v155.06H245.78l99.91-155.06ZM103.49,220.99L47.32,40.14h62.8l130.89,169.83c3.81,4.93,9.68,7.82,15.9,7.82h637.01c2.84,44.34,39.81,79.56,84.87,79.56h184.4l15.34,11.04c7.67,5.52,12.49,14.09,13.23,23.53.72,9.43-2.72,18.64-9.46,25.26-6.03,5.94-14.01,9.21-22.47,9.21h-285.45l-22.44-32.64c-3.75-5.46-9.93-8.71-16.54-8.71h-62.88l35.46-26.44c8.89-6.62,10.72-19.19,4.09-28.08-6.62-8.89-19.21-10.73-28.08-4.08l-78.6,58.6h-197.28l18.59-39.16c4.75-10.01.48-21.98-9.53-26.73-10.01-4.74-21.98-.49-26.73,9.53l-26.77,56.37h-128.92c-6.82,0-13.19,3.46-16.88,9.2l-20.66,32.07c-89.5-1.55-167.07-59.53-193.72-145.31Zm957.46,2.8l46.45,33.42h-128.61c-22.91,0-41.84-17.25-44.55-39.43h108.02c6.75,0,13.22,2.08,18.69,6.01Zm98.88,182.72c19.06,0,37.04-7.35,50.63-20.73,15.18-14.95,22.95-35.71,21.31-56.96-1.65-21.25-12.51-40.57-29.81-53.02l-117.57-84.58c-12.35-8.89-26.92-13.58-42.14-13.58H266.78L135.9,7.82c-3.81-4.94-9.68-7.82-15.91-7.82H20.07C13.69,0,7.69,3.03,3.92,8.17.13,13.3-.98,19.92.9,26.02l64.25,206.87c29.41,94.66,110.71,160.96,207.2,171.97l-74.33,115.36H62.07c-28.2,0-51.13,22.94-51.13,51.13v135.39c0,28.2,22.93,51.14,51.13,51.14h64.18c3.52,19.24,11.96,36.78,24.03,51.22h-45.68c-11.09,0-20.07,8.98-20.07,20.07s8.98,20.06,20.07,20.06h986.01c11.09,0,20.07-8.98,20.07-20.06s-8.98-20.07-20.07-20.07h-43.65c12.06-14.45,20.51-31.98,24.02-51.22h64.19c28.2,0,51.14-22.94,51.14-51.14v-51.6c0-73.76-60.01-133.77-133.77-133.77h-47.64c-2.1-.74-4.33-1.16-6.69-1.16h-18.06l-78.17-113.71h257.86"/>
    </g>
  </g>
</svg>