<?xml version="1.0" encoding="UTF-8"?>
<svg id="Layer_2" data-name="Layer 2" xmlns="http://www.w3.org/2000/svg" xmlns:xlink="http://www.w3.org/1999/xlink" viewBox="0 0 781 901">
  <defs>
    <style>
      .cls-1 {
        fill: none;
      }

      .cls-1, .cls-2 {
        stroke-width: 0px;
      }

      .cls-3 {
        clip-path: url(#clippath);
      }

      .cls-2 {
        fill: #bc852f;
        fill-rule: evenodd;
      }
    </style>
    <clipPath id="clippath">
      <rect class="cls-1" width="781" height="901"/>
    </clipPath>
  </defs>
  <g id="Layer_1-2" data-name="Layer 1">
    <g class="cls-3">
      <path class="cls-2" d="m777.52,316.21l-.06-.09c-1.23-2.31-2.82-4.51-4.71-6.52l-.51-.51-174.47-174.47c-1.23-2.04-2.7-3.93-4.39-5.65-5.65-5.67-13.3-8.85-21.32-8.85H150.42c-16.58,0-30.03,13.45-30.03,30.03v720.7c0,16.57,13.45,30.03,30.03,30.03h600.58c16.57,0,30.03-13.45,30.03-30.03V330.32c0-5.1-1.26-9.91-3.51-14.11Zm-236.72,13.9c-.06,8.02,3.09,15.71,8.71,21.39,5.65,5.67,13.33,8.85,21.32,8.85h150.15v480.47H180.44V180.18h361.38l-1.02,149.93ZM510.77,0H30.3C13.72,0,.27,13.45.27,30.03v720.7c0,16.58,13.45,30.03,30.03,30.03s30.03-13.45,30.03-30.03V60.06h450.44c16.58,0,30.03-13.45,30.03-30.03s-13.45-30.03-30.03-30.03Zm-240.23,643.49h330.32c16.57,0,30.03-13.48,30.03-30.03s-13.45-30.03-30.03-30.03h-330.32c-16.57,0-30.03,13.45-30.03,30.03s13.45,30.03,30.03,30.03Zm0-102.97h240.23c16.58,0,30.03-13.45,30.03-30.03s-13.45-30.03-30.03-30.03h-240.23c-16.57,0-30.03,13.45-30.03,30.03s13.45,30.03,30.03,30.03Zm0-102.97h180.18c16.57,0,30.03-13.45,30.03-30.03s-13.45-30.03-30.03-30.03h-180.18c-16.57,0-30.03,13.48-30.03,30.03s13.45,30.03,30.03,30.03Zm330.53-137.27h77.45l-76.94-76.9-.51,76.9Z"/>
    </g>
  </g>
</svg>