<?xml version="1.0" encoding="UTF-8"?>
<svg id="Layer_2" data-name="Layer 2" xmlns="http://www.w3.org/2000/svg" viewBox="0 0 94.59 94.59">
  <defs>
    <style>
      .cls-1 {
        fill: #e0b025;
      }

      .cls-1, .cls-2 {
        stroke-width: 0px;
      }

      .cls-2 {
        fill: #0d1d40;
      }
    </style>
  </defs>
  <g id="Layer_1-2" data-name="Layer 1">
    <circle class="cls-2" cx="47.29" cy="47.29" r="47.29"/>
    <g>
      <path class="cls-1" d="m47.29,0C21.17,0,0,21.17,0,47.29s21.17,47.29,47.29,47.29,47.29-21.17,47.29-47.29S73.41,0,47.29,0Zm-.88,88.56c-22.79,0-41.27-18.48-41.27-41.27S23.63,6.03,46.42,6.03s41.27,18.48,41.27,41.27-18.48,41.27-41.27,41.27Z"/>
      <path class="cls-1" d="m15.03,25.16v43.55l-3.52-5.41c-1.1-1.69-2-3.52-2.67-5.43l-.37-1.05c-.94-2.67-1.41-5.48-1.41-8.31v-4.92c0-3.08.57-6.14,1.67-9.02h0c1.2-3.12,3.01-5.97,5.32-8.39l.98-1.02Z"/>
      <path class="cls-1" d="m77.49,25.16v43.55s3.52-5.41,3.52-5.41c1.1-1.69,2-3.52,2.67-5.43l.37-1.05c.94-2.67,1.41-5.48,1.41-8.31v-4.92c0-3.08-.57-6.14-1.67-9.02h0c-1.2-3.12-3.01-5.97-5.32-8.39l-.98-1.02Z"/>
      <polygon class="cls-1" points="59.86 57.05 69.1 46.68 66.52 46.72 68.96 37.53 60.62 40.46 59.15 35.99 53.37 42.82 56.26 30.6 50.1 32.47 45.81 24.01 41.6 32.53 35.42 30.75 38.49 42.93 32.61 36.19 31.21 40.68 22.82 37.87 25.4 47.03 22.82 47.03 32.21 57.26 32.21 63.72 44.92 63.54 44.92 63.54 44.92 76.6 47.07 76.6 47.07 63.52 59.95 63.51 59.86 57.05"/>
    </g>
  </g>
</svg>