<?xml version="1.0" encoding="UTF-8"?>
<svg id="Layer_2" data-name="Layer 2" xmlns="http://www.w3.org/2000/svg" viewBox="0 0 841.89 288">
  <defs>
    <style>
      .cls-1, .cls-2, .cls-3, .cls-4 {
        stroke-width: 0px;
      }

      .cls-1, .cls-5 {
        fill: #e0b025;
      }

      .cls-2 {
        fill: none;
      }

      .cls-3 {
        fill: #0d1d40;
      }

      .cls-5 {
        font-family: SegoeUIVariable-BoldText, 'SegoeUIVariable BoldText';
        font-size: 24.4px;
        font-variation-settings: ';
        font-weight: 700;
      }

      .cls-4 {
        fill: #0e1d41;
      }
    </style>
  </defs>
  <g id="Layer_1-2" data-name="Layer 1">
    <rect class="cls-4" width="841.89" height="288"/>
    <g>
      <rect class="cls-2" x="313.92" y="122.53" width="59.65" height="9.03"/>
      <text class="cls-5" transform="translate(68.04 216.51)"><tspan x="0" y="0" xml:space="preserve">E  d  u  c  a  t  i  o  n  &amp;  I  m  m i  g  r  a  t  i  o  n  C  a  n  a  d  a</tspan></text>
      <circle class="cls-3" cx="116.8" cy="121.56" r="47.29"/>
      <g>
        <path class="cls-1" d="m116.8,74.27c-26.12,0-47.29,21.17-47.29,47.29s21.17,47.29,47.29,47.29,47.29-21.17,47.29-47.29-21.17-47.29-47.29-47.29Zm-.88,88.56c-22.79,0-41.27-18.48-41.27-41.27s18.48-41.27,41.27-41.27,41.27,18.48,41.27,41.27-18.48,41.27-41.27,41.27Z"/>
        <path class="cls-1" d="m84.54,99.43v43.55l-3.52-5.41c-1.1-1.69-2-3.52-2.67-5.43l-.37-1.05c-.94-2.67-1.41-5.48-1.41-8.31v-4.92c0-3.08.57-6.14,1.67-9.02h0c1.2-3.12,3.01-5.97,5.32-8.39l.98-1.02Z"/>
        <path class="cls-1" d="m146.99,99.43v43.55s3.52-5.41,3.52-5.41c1.1-1.69,2-3.52,2.67-5.43l.37-1.05c.94-2.67,1.41-5.48,1.41-8.31v-4.92c0-3.08-.57-6.14-1.67-9.02h0c-1.2-3.12-3.01-5.97-5.32-8.39l-.98-1.02Z"/>
        <polygon class="cls-1" points="129.36 131.32 138.61 120.96 136.02 120.99 138.47 111.8 130.12 114.73 128.65 110.26 122.88 117.09 125.76 104.87 119.61 106.74 115.32 98.28 111.11 106.8 104.93 105.02 107.99 117.2 102.12 110.46 100.71 114.95 92.32 112.14 94.91 121.3 92.32 121.3 101.72 131.53 101.72 137.99 114.43 137.81 114.43 137.81 114.43 150.87 116.58 150.87 116.58 137.8 129.46 137.79 129.36 131.32"/>
      </g>
      <polygon class="cls-1" points="193.27 169 202.68 169 202.68 89.95 266.89 169 276.31 169 276.31 74.13 266.91 74.13 266.91 154.84 202.68 74.13 193.27 74.13 193.27 169"/>
      <path class="cls-1" d="m477.21,113.86c-.79,8.03-17.98,11.74-27.79,11.05h-37.6v44.09s9.4,0,9.4,0v-35.06h39.97c3.23,0,7.16-1.18,11.07-2.5,8.31-2.8,14.09-10.41,14.5-19.16.14-2.94.07-5.65.08-7.72.1-12.23-2.83-20.22-9.44-25.42-1.62-1.27-6.31-3.47-8.63-4.03-4.43-1.08-9.41-1.45-13.12-1.45h-43.83v9.03h44.3s22.05-.86,21.32,19c-.09,2.3.05,9.34-.23,12.17Z"/>
      <polygon class="cls-1" points="496.55 169 505.95 169 538.42 83.16 574.34 169 583.75 169 543.19 74.13 533.78 74.13 496.55 169"/>
      <path class="cls-1" d="m672.7,80.11l-6.25,6.66c.53,2.55-19.09-14.96-40.14-5.24-17.04,7.87-12.91,29.95,7.11,32.42,0,0,52.95,2.95,41.9,38.98-10.39,33.89-65.25,16.74-71.61,7.16l3.06-7.3s50.61,27.01,59.69-5.27c0,0,5.68-17.84-32.5-23.24-33.72-4.77-30.01-31.25-24.34-40.61,7.14-11.79,33.9-21.64,63.07-3.57Z"/>
      <path class="cls-1" d="m768.25,80.11l-6.25,6.66c.53,2.55-19.09-14.96-40.14-5.24-17.04,7.87-12.91,29.95,7.11,32.42,0,0,52.95,2.95,41.9,38.98-10.39,33.89-65.25,16.74-71.61,7.16l3.06-7.3s50.61,27.01,59.69-5.27c0,0,5.68-17.84-32.5-23.24-33.72-4.77-30.01-31.25-24.34-40.61,7.14-11.79,33.9-21.64,63.07-3.57Z"/>
      <rect class="cls-1" x="312.59" y="74.13" width="59.65" height="9.03"/>
      <rect class="cls-1" x="312.59" y="116.35" width="59.65" height="9.03"/>
      <rect class="cls-1" x="312.89" y="159.97" width="59.65" height="9.03"/>
    </g>
  </g>
</svg>